<?xml version="1.0" standalone="no"?><!DOCTYPE svg PUBLIC "-//W3C//DTD SVG 1.1//EN" "http://www.w3.org/Graphics/SVG/1.1/DTD/svg11.dtd"><svg t="1595991080699" class="icon" viewBox="0 0 1024 1024" version="1.1" xmlns="http://www.w3.org/2000/svg" p-id="2918" xmlns:xlink="http://www.w3.org/1999/xlink" width="200" height="200"><defs><style type="text/css"></style></defs><path d="M867.223 715.821l-11.148-6.299a88.452 88.452 0 0 1-44.939-77.009V424.729c0-142.031-107.681-258.901-245.857-273.45v-35.148c0-28.668-23.24-51.908-51.908-51.908-28.668 0-51.908 23.24-51.908 51.908v34.886C322.014 164.338 212.948 281.79 212.948 424.729v207.784a88.452 88.452 0 0 1-44.939 77.009l-11.249 6.356c-42.67 24.11-25.558 89.182 23.453 89.182h663.541c49.043 0 66.167-65.113 23.469-89.239z m-615.707 16.264c21.915-27.988 34.408-62.933 34.408-99.572V424.729c0-53.959 21.013-104.689 59.168-142.843 38.155-38.155 88.884-59.167 142.843-59.167h48.216c53.959 0 104.689 21.013 142.843 59.167 38.155 38.155 59.167 88.884 59.167 142.843v207.784c0 36.639 12.492 71.583 34.408 99.572H251.516zM511.939 959.558c59.84 0 108.42-48.372 108.42-108.212H403.727c0 59.84 48.372 108.212 108.212 108.212z" p-id="2919" fill="#5e97e1"></path></svg>