<?xml version="1.0" encoding="utf-8"?>
<!-- Generator: Adobe Illustrator 22.0.0, SVG Export Plug-In . SVG Version: 6.00 Build 0)  -->
<svg version="1.1" id="图层_1" xmlns="http://www.w3.org/2000/svg" xmlns:xlink="http://www.w3.org/1999/xlink" x="0px" y="0px"
	 viewBox="0 0 1024 1024" style="enable-background:new 0 0 1024 1024;" xml:space="preserve">
<style type="text/css">
	.st0{fill:#FFFFFF;}
	.st1{fill:#050505;}
	.st2{fill:none;stroke:#000000;stroke-width:35;stroke-linecap:round;stroke-linejoin:round;stroke-miterlimit:10;}
	.st3{stroke:#000000;stroke-width:1.5;stroke-miterlimit:10;}
	.st4{fill:none;stroke:#F1F8FD;stroke-linecap:round;stroke-miterlimit:10;}
	.st5{fill:#040000;}
	.st6{fill:#3E3A39;}
	.st7{fill:#313333;}
</style>
<g>
	<path class="st6" d="M511.8,959.1C265,959.1,64.2,758.3,64.2,511.5S265,63.9,511.8,63.9s447.6,200.8,447.6,447.6
		S758.6,959.1,511.8,959.1z M511.8,127.9c-211.5,0-383.6,172.1-383.6,383.6s172.1,383.6,383.6,383.6S895.4,723,895.4,511.5
		S723.3,127.9,511.8,127.9z"/>
	<path class="st6" d="M486.2,231.4c0,51.3,0,237.7,0,282.9c0,5.5-4.5,9.9-10,9.9l-178.3,0c-11.2,0-21.9,6.5-25.4,17.1
		c-5.8,17.6,7.4,34.1,24.2,34.1h230.7c5.5,0,10-4.5,10-10V230.2c0-16.8-16.5-30-34.1-24.2C492.7,209.5,486.2,220.3,486.2,231.4z"/>
</g>
</svg>
