<?xml version="1.0" encoding="utf-8"?>
<!-- Generator: Adobe Illustrator 22.0.0, SVG Export Plug-In . SVG Version: 6.00 Build 0)  -->
<svg version="1.1" id="图层_1" xmlns="http://www.w3.org/2000/svg" xmlns:xlink="http://www.w3.org/1999/xlink" x="0px" y="0px"
	 viewBox="0 0 1024 1024" style="enable-background:new 0 0 1024 1024;" xml:space="preserve">
<style type="text/css">
	.st0{fill:#3E3A39;}
	.st1{fill:#2F2F2F;}
	.st2{fill:#3B3A39;}
	.st3{fill:#3E3A39;stroke:#231815;stroke-width:0.2;stroke-miterlimit:10;}
	.st4{fill:#231815;stroke:#231815;stroke-width:0.2;stroke-miterlimit:10;}
</style>
<g>
	<path class="st1" d="M468.9,468.9H188.3C119.8,468.9,64,413.1,64,344.6V169.7C64,111.4,111.4,64,169.7,64h174.9
		c68.5,0,124.3,55.8,124.3,124.3V468.9z M169.7,125.3c-24.5,0-44.4,19.9-44.4,44.4v174.9c0,34.8,28.3,63.1,63.1,63.1h219.3V188.3
		c0-34.8-28.3-63.1-63.1-63.1H169.7z"/>
	<path class="st1" d="M344.6,960H169.7C111.4,960,64,912.6,64,854.3V679.4c0-68.5,55.8-124.3,124.3-124.3h280.5v280.6
		C468.9,904.2,413.1,960,344.6,960z M188.3,616.4c-34.8,0-63.1,28.3-63.1,63.1v174.9c0,24.5,19.9,44.4,44.4,44.4h174.9
		c34.8,0,63.1-28.3,63.1-63.1V616.4H188.3z"/>
	<path class="st1" d="M835.7,468.9H555.1V188.3c0-68.5,55.8-124.3,124.3-124.3h174.9C912.6,64,960,111.4,960,169.7v174.9
		C960,413.1,904.2,468.9,835.7,468.9z M616.4,407.6h219.3c34.8,0,63.1-28.3,63.1-63.1V169.7c0-24.5-19.9-44.4-44.4-44.4H679.4
		c-34.8,0-63.1,28.3-63.1,63.1V407.6z"/>
	<path class="st1" d="M854.3,960H679.4c-68.5,0-124.3-55.8-124.3-124.3V555.1h280.5c68.5,0,124.3,55.8,124.3,124.3v174.9
		C960,912.6,912.6,960,854.3,960z M616.4,616.4v219.3c0,34.8,28.3,63.1,63.1,63.1h174.9c24.5,0,44.4-19.9,44.4-44.4V679.4
		c0-34.8-28.3-63.1-63.1-63.1H616.4z"/>
</g>
</svg>
