<?xml version="1.0" encoding="utf-8"?>
<!-- Generator: Adobe Illustrator 22.0.0, SVG Export Plug-In . SVG Version: 6.00 Build 0)  -->
<svg version="1.1" id="图层_1" xmlns="http://www.w3.org/2000/svg" xmlns:xlink="http://www.w3.org/1999/xlink" x="0px" y="0px"
	 viewBox="0 0 1024 1024" style="enable-background:new 0 0 1024 1024;" xml:space="preserve">
<style type="text/css">
	.st0{fill:#2F2F2F;}
</style>
<g>
	<path class="st0" d="M512.2,959.6c-246.9,0-447.8-200.9-447.8-447.8S265.3,63.9,512.2,63.9c246.9,0,447.8,200.9,447.8,447.8
		S759.2,959.6,512.2,959.6z M512.2,113.1c-219.8,0-398.7,178.8-398.7,398.7s178.8,398.7,398.7,398.7
		c219.8,0,398.7-178.8,398.7-398.7S732.1,113.1,512.2,113.1z"/>
</g>
<g>
	<g>
		<path class="st0" d="M685.9,376.9H338.6c-13.5,0-24.6-11.1-24.6-24.6v0c0-13.5,11.1-24.6,24.6-24.6h347.3
			c13.5,0,24.6,11.1,24.6,24.6v0C710.5,365.9,699.4,376.9,685.9,376.9z"/>
	</g>
	<g>
		<path class="st0" d="M685.9,536.3H338.6c-13.5,0-24.6-11.1-24.6-24.6v0c0-13.5,11.1-24.6,24.6-24.6h347.3
			c13.5,0,24.6,11.1,24.6,24.6v0C710.5,525.3,699.4,536.3,685.9,536.3z"/>
	</g>
	<g>
		<path class="st0" d="M685.9,695.7H338.6c-13.5,0-24.6-11.1-24.6-24.6v0c0-13.5,11.1-24.6,24.6-24.6h347.3
			c13.5,0,24.6,11.1,24.6,24.6v0C710.5,684.7,699.4,695.7,685.9,695.7z"/>
	</g>
</g>
</svg>
