<?xml version="1.0" encoding="utf-8"?>
<!-- Generator: Adobe Illustrator 22.0.0, SVG Export Plug-In . SVG Version: 6.00 Build 0)  -->
<svg version="1.1" id="图层_1" xmlns="http://www.w3.org/2000/svg" xmlns:xlink="http://www.w3.org/1999/xlink" x="0px" y="0px"
	 viewBox="0 0 1024 1024" style="enable-background:new 0 0 1024 1024;" xml:space="preserve">
<style type="text/css">
	.st0{fill:#313333;}
</style>
<g>
	<path class="st0" d="M148.7,485c-2.7,0-5.3-0.3-8-1.1c-16.6-4.4-26.5-21.4-22.1-38c22.4-83.8,74-157.5,145.4-207.5
		c14.1-9.8,33.5-6.5,43.4,7.6c9.9,14,6.5,33.4-7.6,43.3c-59.4,41.7-102.4,103-121,172.7C175.1,475.8,162.5,485,148.7,485z"/>
	<path class="st0" d="M498.4,959.6c-55.8,0-111.3-12.5-162.2-37.1c-15.5-7.5-21.9-26.1-14.4-41.5s26.1-21.9,41.6-14.4
		c65.4,31.6,140,39.3,210.1,21.7c16.7-4.2,33.6,5.9,37.8,22.5s-5.9,33.5-22.6,37.7C559,955.9,528.6,959.6,498.4,959.6z"/>
	<path class="st0" d="M869.4,575.5c-17,0-30.9-13.7-31.1-30.7c-0.7-72.5-27.1-142.5-74.1-197.3c-11.2-13-9.7-32.6,3.4-43.8
		c13.1-11.2,32.7-9.7,43.9,3.4c56.5,65.8,88.2,150,89.1,237.1c0.2,17.1-13.6,31.2-30.8,31.4C869.6,575.5,869.5,575.5,869.4,575.5z"
		/>
	<path class="st0" d="M515.9,523.8c-3.5,0-7-0.6-10.4-1.8c-9.8-3.5-17.2-11.5-19.7-21.6L400,165.7l0,0c-6-23.3-1.3-47.6,12.9-66.7
		c15.4-20.8,39.7-33.5,66.7-34.8c91.4-4.6,156.5,61.7,174.1,177.1c25.5,167.5-113.2,272-119.1,276.4
		C529,521.7,522.5,523.8,515.9,523.8z M460.2,150.3l72.7,283.4c31.8-36.5,71.7-100.4,59.1-183.1c-9-58.8-35.2-128.1-109.4-124.5
		c-8.1,0.4-15.5,4-19.6,9.6C459.8,140.1,458.9,145,460.2,150.3L460.2,150.3z"/>
	<path class="st0" d="M161.5,876c-2.9,0-5.9-0.2-8.9-0.5c-25.7-2.9-48.9-17.5-63.5-40.2c-49.6-76.7-24.7-166,66.8-239
		c132.6-105.8,292.7-38.2,299.4-35.3c9.5,4.1,16.3,12.7,18.2,22.9c1.9,10.2-1.4,20.6-8.9,27.8L217,853.3l0,0
		C201.9,868,182.1,876,161.5,876z M195.2,831.1h0.1H195.2z M330.2,599.1c-41.8,0-91,10.2-135.5,45.7
		c-46.6,37.1-93.6,94.5-53.3,156.8c4.4,6.8,11.2,11.4,18.2,12.1c5.3,0.6,9.9-1.1,13.9-4.9l209.7-204.5
		C368,601.4,349.9,599.1,330.2,599.1z"/>
	<path class="st0" d="M810.1,872.1c-30.8,0-64.7-6.9-100.7-20.9C551.3,789.5,529.9,617.4,529,610.1c-1.2-10.3,2.9-20.4,10.7-27.2
		c7.9-6.7,18.6-9.1,28.6-6.3l333.5,93.2l0,0c23.2,6.5,41.9,22.7,51.5,44.5c10.4,23.7,9.2,51-3.1,75
		C922.2,843.8,872.6,872.1,810.1,872.1z M602.7,650.7c15.8,45.8,51.4,112.1,129.4,142.6C787.6,815,860.9,827,894.8,761
		c3.7-7.2,4.3-15.4,1.5-21.8c-2.1-4.9-5.9-8.1-11.2-9.5l0,0L602.7,650.7z"/>
</g>
</svg>
