<?xml version="1.0" encoding="UTF-8"?>
<svg width="112px" height="112px" viewBox="0 0 112 112" version="1.1" xmlns="http://www.w3.org/2000/svg" xmlns:xlink="http://www.w3.org/1999/xlink">
    <!-- Generator: Sketch 54.1 (76490) - https://sketchapp.com -->
    <title>ic_ele_jiashiqi_fail</title>
    <desc>Created with Sketch.</desc>
    <g id="五大系统（深背景）" stroke="none" stroke-width="1" fill="none" fill-rule="evenodd">
        <g id="ic_ele_jiashiqi_fail" transform="translate(2.000000, 2.000000)">
            <path d="M54,108 C83.8233765,108 108,83.8233765 108,54 C108,24.1766235 83.8233765,0 54,0 C24.1766235,0 0,24.1766235 0,54 C0,83.8233765 24.1766235,108 54,108 Z" id="椭圆形复制-5" stroke="#FFFFFF" stroke-width="3" fill-opacity="0" fill="#FFFFFF"></path>
            <g id="加湿器" transform="translate(28.000000, 28.000000)">
                <path d="M53,27.6579865 C53,11.8308642 42.6730336,0 26.0985684,0 C11.1303308,0 0,11.8308642 0,27.6579865 C0,28.1594369 0.0125290769,28.6569272 0.0345802523,29.1479824 C0.171397772,32.1106486 0.688598067,34.8332324 1.22033209,36.7157753 C1.6884184,38.3755614 2.76291204,41.2412047 3.90506269,42.9920736 C5.24166462,45.0404466 6.65293984,47.2650451 8.4315676,48.5827757 C9.58975547,49.4401421 14.4084385,49.7599219 14.4084385,49.7599219 L19.6691473,49.9381274 C21.8261531,50.1138578 38.6371674,49.85942 38.6371674,49.85942 C38.6371674,49.85942 43.4558504,49.5391451 44.6140382,48.6817787 C48.7636685,45.6077341 51.5070352,38.0344959 51.8368005,36.7840875 C52.4216578,34.5639441 53,31.2255613 53,27.6579865 Z" id="Stroke-1" stroke="#FFFFFF" stroke-width="2"></path>
                <path d="M16.1344411,53 L11.8650554,53 C11.3872105,53 11,52.689808 11,52.3075064 L11,50 L17,50 L17,52.3075064 C17,52.689808 16.612286,53 16.1344411,53" id="Fill-3" fill="#FFFFFF"></path>
                <path d="M41.1344411,53 L36.8650554,53 C36.3872105,53 36,52.689808 36,52.3075064 L36,50 L42,50 L42,52.3075064 C42,52.689808 41.612286,53 41.1344411,53" id="Fill-5" fill="#FFFFFF"></path>
                <path d="M36,13.5 C36,18.1941647 31.9706829,22 27.0002518,22 C22.0293171,22 18,18.1941647 18,13.5 C18,8.80535974 22.0293171,5 27.0002518,5 C31.9706829,5 36,8.80535974 36,13.5 Z" id="Stroke-7" stroke="#FFFFFF" stroke-width="1.13207547"></path>
                <path d="M53,29 C53,30.1056865 41.3711721,31 27,31 L26,31 C11.8451114,31 0,30.1056865 0,29 L0,29" id="路径" stroke="#FFFFFF" stroke-width="1.13207547"></path>
            </g>
        </g>
    </g>
</svg>