<?xml version="1.0" encoding="UTF-8"?>
<svg width="112px" height="112px" viewBox="0 0 112 112" version="1.1" xmlns="http://www.w3.org/2000/svg" xmlns:xlink="http://www.w3.org/1999/xlink">
    <!-- Generator: Sketch 54.1 (76490) - https://sketchapp.com -->
    <title>ic_ele_diannuanqi_fail</title>
    <desc>Created with Sketch.</desc>
    <defs>
        <polygon id="path-1" points="5.11627907e-05 0 66 0 66 48 5.11627907e-05 48"></polygon>
        <polygon id="path-3" points="0 51 66 51 66 0 0 0"></polygon>
    </defs>
    <g id="五大系统（深背景）" stroke="none" stroke-width="1" fill="none" fill-rule="evenodd">
        <g id="魔方-睡眠模式复制" transform="translate(-1641.000000, -618.000000)">
            <g id="ic_ele_diannuanqi_fail" transform="translate(1643.000000, 620.000000)">
                <circle id="椭圆形复制-10" stroke="#FFFFFF" stroke-width="3" fill-opacity="0" fill="#FFFFFF" cx="54" cy="54" r="54"></circle>
                <g id="电暖器" transform="translate(21.000000, 29.000000)">
                    <g id="编组">
                        <mask id="mask-2" fill="white">
                            <use xlink:href="#path-1"></use>
                        </mask>
                        <g id="Clip-2"></g>
                        <path d="M2.02251628,45.4736842 L63.9535395,45.4772211 L63.9571209,2.02105263 L2.04656279,2.01397895 L2.02251628,45.4736842 Z M64.2359581,48 L1.76414419,48 C0.794097674,48 5.11627907e-05,47.2158316 5.11627907e-05,46.2578526 L5.11627907e-05,1.74214737 C5.11627907e-05,0.784168421 0.794097674,0 1.76414419,0 L64.2359581,0 C65.2060047,0 66.0000512,0.784168421 66.0000512,1.74214737 L66.0000512,46.2578526 C66.0000512,47.2158316 65.2060047,48 64.2359581,48 L64.2359581,48 Z" id="Fill-1" fill="#FFFFFF" mask="url(#mask-2)"></path>
                    </g>
                    <path d="M10.2775,51 L5.723,51 C5.3235,51 5,50.6124 5,50.133 L5,48 L11,48 L11,50.133 C11,50.6124 10.677,51 10.2775,51" id="Fill-3" fill="#FFFFFF"></path>
                    <path d="M60.2775,51 L55.723,51 C55.3235,51 55,50.6124 55,50.133 L55,48 L61,48 L61,50.133 C61,50.6124 60.677,51 60.2775,51" id="Fill-5" fill="#FFFFFF"></path>
                    <mask id="mask-4" fill="white">
                        <use xlink:href="#path-3"></use>
                    </mask>
                    <g id="Clip-8"></g>
                    <polygon id="Fill-7" fill="#FFFFFF" mask="url(#mask-4)" points="1 6 64 6 64 5 1 5"></polygon>
                    <polygon id="Fill-9" fill="#FFFFFF" mask="url(#mask-4)" points="3 44 66 44 66 43 3 43"></polygon>
                    <polygon id="Fill-10" fill="#FFFFFF" mask="url(#mask-4)" points="9 43 10 43 10 5 9 5"></polygon>
                    <polygon id="Fill-11" fill="#FFFFFF" mask="url(#mask-4)" points="19 43 20 43 20 5 19 5"></polygon>
                    <polygon id="Fill-12" fill="#FFFFFF" mask="url(#mask-4)" points="28 43 29 43 29 5 28 5"></polygon>
                    <polygon id="Fill-13" fill="#FFFFFF" mask="url(#mask-4)" points="37 43 38 43 38 5 37 5"></polygon>
                    <polygon id="Fill-14" fill="#FFFFFF" mask="url(#mask-4)" points="46 43 47 43 47 5 46 5"></polygon>
                    <polygon id="Fill-15" fill="#FFFFFF" mask="url(#mask-4)" points="56 43 57 43 57 5 56 5"></polygon>
                </g>
            </g>
        </g>
    </g>
</svg>