<?xml version="1.0" encoding="UTF-8"?>
<svg width="112px" height="112px" viewBox="0 0 112 112" version="1.1" xmlns="http://www.w3.org/2000/svg" xmlns:xlink="http://www.w3.org/1999/xlink">
    <!-- Generator: Sketch 54.1 (76490) - https://sketchapp.com -->
    <title>ic_ele_tashan_fail</title>
    <desc>Created with Sketch.</desc>
    <g id="五大系统（深背景）" stroke="none" stroke-width="1" fill="none" fill-rule="evenodd">
        <g id="魔方-睡眠模式复制" transform="translate(-1437.000000, -618.000000)" stroke="#FFFFFF">
            <g id="ic_ele_tashan_fail" transform="translate(1439.000000, 620.000000)">
                <g id="塔扇" transform="translate(36.000000, 19.000000)">
                    <path d="M26.1666667,65 L10.8333333,65 C8.71615385,65 7,63.3693966 7,61.3577586 L7,3.64224138 C7,1.63060345 8.71615385,0 10.8333333,0 L26.1666667,0 C28.2838462,0 30,1.63060345 30,3.64224138 L30,61.3577586 C30,63.3693966 28.2838462,65 26.1666667,65 Z" id="Stroke-1" stroke-width="1.6"></path>
                    <path d="M21.47935,48 L15.52065,48 C14.1286,48 13,46.8274286 13,45.3811429 L13,6.61885714 C13,5.17257143 14.1286,4 15.52065,4 L21.47935,4 C22.8714,4 24,5.17257143 24,6.61885714 L24,45.3811429 C24,46.8274286 22.8714,48 21.47935,48 Z" id="Stroke-3" stroke-width="1.6"></path>
                    <path d="M34.9770968,70 L2.02346774,70 C1.4583871,70 1,69.5128 1,68.9128 L1,68.0872 C1,67.4872 1.4583871,67 2.02346774,67 L34.9770968,67 C35.5421774,67 36,67.4872 36,68.0872 L36,68.9128 C36,69.5128 35.5421774,70 34.9770968,70 Z" id="Stroke-5" stroke-width="1.2"></path>
                </g>
                <circle id="椭圆形复制-9" stroke-width="3" fill-opacity="0" fill="#FFFFFF" cx="54" cy="54" r="54"></circle>
            </g>
        </g>
    </g>
</svg>