<?xml version="1.0" encoding="UTF-8"?>
<svg width="112px" height="112px" viewBox="0 0 112 112" version="1.1" xmlns="http://www.w3.org/2000/svg" xmlns:xlink="http://www.w3.org/1999/xlink">
    <!-- Generator: Sketch 54.1 (76490) - https://sketchapp.com -->
    <title>ic_ele_kongtiao</title>
    <desc>Created with Sketch.</desc>
    <g id="五大系统（深背景）" stroke="none" stroke-width="1" fill="none" fill-rule="evenodd">
        <g id="魔方-睡眠模式复制" transform="translate(-1233.000000, -618.000000)" stroke="#32C5FF">
            <g id="ic_ele_kongtiao" transform="translate(1235.000000, 620.000000)">
                <circle id="椭圆形复制-8" stroke-width="3" cx="54" cy="54" r="54"></circle>
                <g id="ic_ele_kongtiaoguiji" transform="translate(42.000000, 16.000000)">
                    <path d="M21,5 C20.4309216,2.14651511 17.9728193,0 15.0277172,0 L9.95829906,0 C7.43331784,0 5.26644254,1.57694229 4.34169021,3.82463153 C4.19516469,4.17874094 4.08086263,4.54908818 4,4.93255059" id="Stroke-1" stroke-width="1.5"></path>
                    <path d="M1,73 C1,75.2091421 6.14871634,77 12.5,77 C18.8512837,77 24,75.2091421 24,73" id="Stroke-3" stroke-width="1.5"></path>
                    <path d="M20,71.0028229 C18.0001641,71.6231475 15.3769947,72 12.504615,72 C9.6285433,72 7.00106658,71.6217361 5,71" id="Stroke-5" stroke-width="1.2"></path>
                    <path d="M2.9567427,5 L2.9567427,5 C2.83702433,5 2.7292778,5.08911367 2.74124963,5.20377741 C3.63283644,13.4271617 3.63283644,63.1027342 0.0551474677,71.9729715 C-0.176098016,72.5469134 0.24669686,74.7354952 2.73809915,73.7471436 C5.6938827,72.5749561 7.47705631,69.0789584 8.34721983,63.5146512 C8.79395838,60.6580285 9,48.2880544 9,40.0110773 L9,15.3122585 L9,10.805475 C9,7.59925249 6.29436484,5 2.9567427,5 Z" id="Stroke-7" stroke-width="1.5"></path>
                    <path d="M22.0435417,5 L22.0435417,5 C22.1632657,5 22.2710173,5.08911367 22.2584148,5.20377741 C21.3674161,13.4271617 21.3674161,63.1027342 24.9446434,71.9729715 C25.1765299,72.5469134 24.753085,74.7354952 22.2615654,73.7471436 C19.3062729,72.5749561 17.5223852,69.0789584 16.6521808,63.5146512 C16.2054212,60.6580285 16,48.2880544 16,40.0110773 L16,15.3122585 L16,10.805475 C16,7.59925249 18.7057625,5 22.0435417,5 Z" id="Stroke-9" stroke-width="1.5"></path>
                </g>
            </g>
        </g>
    </g>
</svg>