<?xml version="1.0" encoding="UTF-8"?>
<svg width="46px" height="25px" viewBox="0 0 46 25" version="1.1" xmlns="http://www.w3.org/2000/svg" xmlns:xlink="http://www.w3.org/1999/xlink">
    <!-- Generator: Sketch 54.1 (76490) - https://sketchapp.com -->
    <title>ic_kongqizhiliang</title>
    <desc>Created with Sketch.</desc>
    <defs>
        <polygon id="path-1" points="0 0 46 0 46 25 0 25"></polygon>
    </defs>
    <g id="起床睡眠模式" stroke="none" stroke-width="1" fill="none" fill-rule="evenodd">
        <g id="魔方-睡眠模式" transform="translate(-607.000000, -455.000000)">
            <g id="ic_kongqizhiliang" transform="translate(607.000000, 455.000000)">
                <mask id="mask-2" fill="white">
                    <use xlink:href="#path-1"></use>
                </mask>
                <g id="Clip-2"></g>
                <path d="M45.6546295,2.17072462 C45.2012577,1.5844102 44.4007094,1.41043373 43.7580924,1.7529071 C36.7818858,5.38312491 30.8022801,3.57349558 25.016004,1.82003189 C16.7722626,-0.670434519 8.99414613,-3.01980189 2.12685761,12.2723194 L2.06967559,12.39287 C1.99615585,12.6024637 1.96620336,12.8106875 1.98254108,12.9805543 C1.98254108,13.1764491 2.02883129,13.3778234 2.13094204,13.6038559 C2.22896837,13.7860517 2.33516355,13.924411 2.45769645,14.0381121 C2.60065151,14.1696219 2.76130576,14.270994 2.93149035,14.3367489 C3.12618152,14.4148328 3.32223416,14.4436006 3.53462453,14.4408608 C3.73340013,14.4326414 3.93081425,14.3819554 4.11733656,14.2915424 L4.20719402,14.2408564 C11.4570575,10.0722704 15.5346802,11.2024325 19.8560073,12.3997195 C23.4353296,13.3860428 27.1331003,14.4066135 32.2331921,12.2024548 C32.5953449,12.0449171 32.8744476,11.7517598 33.0201256,11.3777789 C33.1644421,11.0024281 33.1562733,10.5928299 32.9969805,10.2325479 C32.8431336,9.85856701 32.5545006,9.56814959 32.1841789,9.4188312 C31.8193032,9.26814291 31.416306,9.27362248 31.0500688,9.42842045 C26.8975649,11.2270906 23.9867276,10.4215932 20.6143498,9.49006566 C16.9410857,8.47771435 12.803558,7.33659306 6.81306044,9.64486363 C11.9349358,1.00768503 17.1099088,2.57073353 24.1841418,4.7091373 C29.431273,6.29684388 35.3523352,8.09003449 42.1202359,5.73792733 C39.9568494,10.6257074 35.56881,17.0559875 29.7743651,20.1218092 C24.4346535,22.9533791 18.5993643,22.5999466 12.4223445,19.0724708 C8.22899622,16.6792668 4.91788487,14.7901837 0.999554898,16.1354191 C0.228959081,16.4011784 -0.183568362,17.2573619 0.079196643,18.0436807 C0.340600171,18.82452 1.1806313,19.249187 1.95531155,18.9902772 C4.51761071,18.1094356 6.81442192,19.313572 10.990071,21.7012964 C14.8403271,23.8986056 18.6374857,25 22.3352564,25 C24.0983687,25 25.838336,24.7493095 27.5510737,24.2479285 C31.7784589,23.0068049 35.685897,20.253319 39.16447,16.0628147 C41.6968167,13.0189113 43.4150003,9.91336275 44.4129627,7.84345366 C46.4061646,3.6543193 46.1365922,2.7679982 45.6546295,2.17072462" id="Fill-1" fill="#FEFEFE" mask="url(#mask-2)"></path>
            </g>
        </g>
    </g>
</svg>