<?xml version="1.0" encoding="UTF-8"?>
<svg width="49px" height="29px" viewBox="0 0 49 29" version="1.1" xmlns="http://www.w3.org/2000/svg" xmlns:xlink="http://www.w3.org/1999/xlink">
    <!-- Generator: Sketch 54.1 (76490) - https://sketchapp.com -->
    <title>ic_PM2.5</title>
    <desc>Created with Sketch.</desc>
    <g id="起床睡眠模式" stroke="none" stroke-width="1" fill="none" fill-rule="evenodd">
        <g id="魔方-睡眠模式" transform="translate(-774.000000, -453.000000)" fill="#FFFFFF" fill-rule="nonzero" stroke="#FFFFFF">
            <path d="M783.5,455 L776.983333,455 C776.275,455 775.708333,455.133333 775.425,455.4 C775.141667,455.666667 775,456.2 775,456.866667 L775,479.266667 C775,479.8 775.141667,480.2 775.283333,480.466667 C775.425,480.733333 775.85,481 776.558333,481 C776.841667,481 777.975,480.866667 777.975,479.266667 L777.975,470.866667 L783.358333,470.866667 C786.05,470.866667 788.316667,470.2 789.733333,468.733333 C791.291667,467.4 792,465.4 792,462.866667 C792,460.333333 791.291667,458.333333 789.733333,456.866667 C788.6,455.666667 786.333333,455 783.5,455 L783.5,455 Z M783.358974,468 L778,468 L778,457 L783.358974,457 C787.166667,457 789,458.810127 789,462.56962 C789,464.518987 788.576923,465.911392 787.730769,466.746835 C786.884615,467.582278 785.333333,468 783.358974,468 Z M822,478.584082 L818.54137,456.431393 C818.26468,454.270155 816.881228,454 816.051157,454 C815.082741,454 813.97598,454.405232 813.422599,456.161238 L808.165482,474.531761 L802.77002,456.161238 C802.216639,454.405232 801.109878,454 800.141461,454 C799.31139,454 798.066284,454.270155 797.651248,456.431393 L794.054273,478.989314 C793.915928,479.664701 794.054273,480.20501 794.330964,480.475165 C794.469309,480.610243 794.745999,480.880397 795.29938,480.880397 C796.129451,480.880397 796.406142,480.475165 796.544487,480.20501 C796.682832,479.934856 796.821177,479.529624 796.821177,479.124391 L800.141461,457.917244 C801.109878,461.429256 802.216639,464.941267 803.185055,468.453279 L806.50534,479.394546 C806.78203,480.20501 806.920375,480.475165 807.05872,480.610243 C807.612101,481.150552 808.442172,481.150552 808.857208,480.475165 C808.995553,480.20501 809.133898,479.934856 809.272243,479.394546 L815.636122,457.917244 C815.636122,458.052321 815.774467,458.322476 815.774467,458.457553 C815.774467,458.727708 815.912812,458.997863 815.912812,459.268018 L818.956406,479.124391 C819.094751,479.664701 819.233096,480.069933 819.371442,480.340088 C819.648132,480.610243 820.063167,480.880397 820.478203,480.880397 C821.169929,480.880397 821.72331,480.475165 821.72331,479.799778 C822,479.394546 822,478.989314 822,478.584082 L822,478.584082 Z" id="ic_PM2.5"></path>
        </g>
    </g>
</svg>