<?xml version="1.0" encoding="UTF-8"?>
<svg width="27px" height="40px" viewBox="0 0 27 40" version="1.1" xmlns="http://www.w3.org/2000/svg" xmlns:xlink="http://www.w3.org/1999/xlink">
    <!-- Generator: Sketch 54.1 (76490) - https://sketchapp.com -->
    <title>ic_shidu</title>
    <desc>Created with Sketch.</desc>
    <defs>
        <polygon id="path-1" points="0 0.270518868 26.388 0.270518868 26.388 39.9993632 0 39.9993632"></polygon>
    </defs>
    <g id="起床睡眠模式" stroke="none" stroke-width="1" fill="none" fill-rule="evenodd">
        <g id="魔方-睡眠模式" transform="translate(-406.000000, -447.000000)">
            <g id="ic_shidu" transform="translate(406.000000, 447.000000)">
                <g id="编组">
                    <mask id="mask-2" fill="white">
                        <use xlink:href="#path-1"></use>
                    </mask>
                    <g id="Clip-2"></g>
                    <path d="M13.3666714,39.9993632 C13.2895286,39.9993632 13.2123857,39.996816 13.1481,39.9917217 C13.1352429,39.9917217 13.1236714,39.9891745 13.1108143,39.9891745 C6.4881,39.8923821 0.882385714,35.0731368 0.0852428571,28.7803538 C-0.519042857,23.9356368 2.27095714,18.3280425 2.39952857,18.0911557 L12.0295286,0.934693396 C12.5322429,0.0482783019 13.8179571,0.0482783019 14.3181,0.934693396 L24.0265286,18.2146934 C24.1422429,18.4503066 26.9052429,24.0871934 26.3022429,28.9561085 C25.5436714,35.0871462 20.1038143,39.7968632 13.6109571,39.9802594 C13.5338143,39.9917217 13.4566714,39.9993632 13.3666714,39.9993632 Z M4.970248,19.379683 C4.95674549,19.4084431 2.57662105,24.1178981 3.06639395,27.9094288 C3.68014445,32.6512388 7.97639796,36.7735099 13.0828021,36.8466083 C13.1085797,36.8466083 13.1319022,36.8466083 13.1441772,36.8478066 C13.2067797,36.8430133 13.2546523,36.8430133 13.3049798,36.8406166 C18.3500089,36.7663199 22.5959349,32.7171472 23.1863629,28.0712039 C23.6515858,24.3264083 21.4175339,19.7212084 21.2960113,19.4695581 L13.6241301,6.19560569 C13.4031799,5.80734527 12.8250269,5.80734527 12.6040767,6.19560569 L4.970248,19.379683 Z" id="Fill-1" fill="#FFFFFF" mask="url(#mask-2)"></path>
                </g>
                <path d="M9.79964277,31.5105184 C9.40346315,32.0632751 8.5377373,32.1652019 7.99629182,31.7274394 C6.08729297,30.2142189 5,28.029327 5,25.6745571 C5.00146733,24.2057662 5.44166691,22.7696441 6.24869948,21.5230012 C6.61553246,20.9754715 7.42256503,20.8265016 7.98015117,21.2263681 L8.06819108,21.2864788 C8.50839067,21.6105537 8.59643058,22.176378 8.31763751,22.6245944 C7.71603142,23.5393219 7.39175106,24.5951787 7.39175106,25.6745571 C7.39321839,27.4256069 8.21492428,29.0446745 9.62356294,30.155415 C10.0490892,30.4964776 10.1224558,31.0779829 9.79964277,31.5105184 Z" id="Fill-3" fill="#FFFFFF"></path>
            </g>
        </g>
    </g>
</svg>