<?xml version="1.0" encoding="UTF-8"?>
<svg width="25px" height="40px" viewBox="0 0 25 40" version="1.1" xmlns="http://www.w3.org/2000/svg" xmlns:xlink="http://www.w3.org/1999/xlink">
    <!-- Generator: Sketch 54.1 (76490) - https://sketchapp.com -->
    <title>ic_wendu</title>
    <desc>Created with Sketch.</desc>
    <g id="起床睡眠模式" stroke="none" stroke-width="1" fill="none" fill-rule="evenodd">
        <g id="魔方-睡眠模式" transform="translate(-192.000000, -447.000000)" fill="#FFFFFF" fill-rule="nonzero">
            <path d="M202.949577,464.612361 C202.814036,465.152937 202.394819,465.579437 201.852441,465.728558 C197.888962,466.879175 195.120624,470.540007 195.120624,474.631356 C195.120624,479.747352 199.327034,483.909166 204.497363,483.909166 C209.667691,483.909166 213.87459,479.747352 213.87459,474.631356 C213.87459,470.570414 211.133081,466.916821 207.207163,465.746899 C206.673173,465.587745 206.33167,465.089545 206.137877,464.621697 C206.020472,464.338264 206.015152,463.924516 206.015152,463.75131 L206.015152,451.92413 C206.015152,451.848561 206.020472,451.773557 206.030898,451.69965 C206.020054,451.621701 206.01543,451.541887 206.017519,451.460721 L206.017519,451.447752 C206.017605,450.918185 205.728837,450.428809 205.260013,450.164002 C204.791188,449.899194 204.213547,449.899194 203.744722,450.164002 C203.275897,450.428809 202.98713,450.918185 202.987216,451.447752 L202.987216,451.461647 C202.989355,451.548379 202.983832,451.633555 202.97125,451.716553 C202.980011,451.784463 202.984533,451.853753 202.984533,451.92413 L202.984533,463.735215 C202.984533,463.810049 203.004267,464.394238 202.949577,464.612361 Z M199.954545,451.92413 C199.954545,451.850422 199.959505,451.777907 199.9691,451.706921 C199.96111,451.651882 199.956199,451.59585 199.954545,451.538995 L199.954545,451.446363 C199.954545,448.990704 201.989615,447 204.5,447 C207.010385,447 209.045455,448.990704 209.045455,451.446363 L209.045455,451.538995 C209.043806,451.596303 209.038848,451.652776 209.030762,451.708241 C209.04024,451.778806 209.045139,451.850879 209.045139,451.92413 L209.045139,463.112063 C211.196403,463.948182 213.080193,465.356645 214.482892,467.189995 C217.335461,470.935314 217.801503,475.954777 215.686339,480.151607 C213.571174,484.348437 209.238741,487.000518 204.498826,487 C199.751732,486.999635 195.414538,484.338789 193.303743,480.131875 C191.192949,475.92496 191.672893,470.898121 194.542566,467.156693 C195.942812,465.338739 197.817018,463.942519 199.954545,463.111872 L199.954545,451.92413 Z M202,474.5 C202,473.119288 203.119288,472 204.5,472 C205.880712,472 207,473.119288 207,474.5 C207,475.880712 205.880712,477 204.5,477 C203.119288,477 202,475.880712 202,474.5 Z" id="ic_wendu"></path>
        </g>
    </g>
</svg>