<?xml version="1.0" encoding="UTF-8"?>
<svg width="100px" height="100px" viewBox="0 0 100 100" version="1.1" xmlns="http://www.w3.org/2000/svg" xmlns:xlink="http://www.w3.org/1999/xlink">
    <!-- Generator: Sketch 54.1 (76490) - https://sketchapp.com -->
    <title>床头灯-关闭</title>
    <desc>Created with Sketch.</desc>
    <g id="床头灯-关闭" stroke="none" stroke-width="1" fill="none" fill-rule="evenodd">
        <g id="编组-11">
            <circle id="椭圆形复制-29" fill="#FFFFFF" cx="50" cy="50" r="50"></circle>
            <g id="台灯复制" transform="translate(24.000000, 23.000000)">
                <g id="编组">
                    <rect id="矩形" fill="#FFFFFF" fill-rule="nonzero" opacity="0" x="0" y="0" width="52" height="51.9230769"></rect>
                    <path d="M45.76,29.4988521 L41.3728342,7.58847282 C40.9794181,5.62089425 39.2788569,4.2047373 37.30175,4.19824245 L28.08,4.19824245 L24.96,4.19824245 L15.7423915,4.19824245 C13.7652846,4.20473732 12.0647234,5.62089427 11.6713074,7.58847282 L7.36025241,29.4988521 C7.11704215,30.737498 7.43301349,32.0216456 8.22137128,32.9985483 C9.00972906,33.975451 10.1875653,34.26802 11.4313366,34.2692308 L24.96,34.2692308 L24.96,50.8846154 L19.76,50.8846154 L19.76,54 L33.28,54 L33.28,50.8846154 L28.08,50.8846154 L28.08,34.2692308 L41.604385,34.2692308 C42.8451501,34.2693204 44.021038,33.9593273 44.810458,32.9872639 C45.5998779,32.0152004 45.9963362,30.7357594 45.76,29.4988521 Z M41.0619247,31.1538209 L11.9671358,31.1538209 C11.4971949,31.1532817 11.0522426,30.9427138 10.7546581,30.5800316 C10.4570736,30.2173494 10.3381973,29.7407491 10.4307249,29.2813145 L14.5928538,8.52972756 C14.739629,7.79893851 15.381848,7.27205147 16.1292647,7.26923077 L36.9079249,7.26923077 C37.6563044,7.27169884 38.2998851,7.79830984 38.4484004,8.52972756 L42.6105293,29.2813145 C42.7011484,29.7422561 42.58039,30.2194591 42.2812984,30.5823416 C41.9821009,30.9464976 41.5340236,31.1564962 41.0619247,31.1538209 Z" id="形状" fill="#FFB909" fill-rule="nonzero"></path>
                    <path d="M19.76,54 C18.8984358,54 18.2,53.3025974 18.2,52.4423077 C18.2,51.582018 18.8984358,50.8846154 19.76,50.8846154 C20.6215642,50.8846154 21.32,51.582018 21.32,52.4423077 C21.32,53.3025974 20.6215642,54 19.76,54 Z M34.78,32.1923077 L34.9,32.1923077 C35.7284271,32.1923077 36.4,32.8638806 36.4,33.6923077 L36.4,37.9615385 C36.4,38.7899656 35.7284271,39.4615385 34.9,39.4615385 L34.78,39.4615385 C33.9515729,39.4615385 33.28,38.7899656 33.28,37.9615385 L33.28,33.6923077 C33.28,32.8638806 33.9515729,32.1923077 34.78,32.1923077 Z" id="椭圆形-2" fill="#FFB909"></path>
                    <ellipse id="椭圆形复制-23" fill="#FFB909" cx="33.28" cy="52.4423077" rx="1.56" ry="1.55769231"></ellipse>
                </g>
            </g>
        </g>
    </g>
</svg>