<?xml version="1.0" encoding="UTF-8"?>
<svg width="100px" height="100px" viewBox="0 0 100 100" version="1.1" xmlns="http://www.w3.org/2000/svg" xmlns:xlink="http://www.w3.org/1999/xlink">
    <!-- Generator: Sketch 54.1 (76490) - https://sketchapp.com -->
    <title>窗帘</title>
    <desc>Created with Sketch.</desc>
    <g id="窗帘" stroke="none" stroke-width="1" fill="none" fill-rule="evenodd">
        <g id="编组-25">
            <circle id="椭圆形复制-26" fill="#4DCDFF" cx="50" cy="50" r="50"></circle>
            <g id="Fill-4" transform="translate(26.000000, 29.000000)" fill="#FFFFFF">
                <path d="M7.52361138,7.29844 L7.52361138,38.05884 C6.28347317,38.38804 4.9509122,38.38804 3.71276585,38.05884 L3.71276585,7.29844 L7.52361138,7.29844 Z M14.7827821,7.29844 L14.7827821,36.99444 C13.4565951,36.62964 12.0371886,36.63044 10.7106033,36.99444 L10.7106033,7.29844 L14.7827821,7.29844 Z M38.2490016,7.29844 L38.2490016,36.99444 C37.5900911,36.81284 36.9064813,36.72124 36.2125138,36.72124 C35.5189447,36.72124 34.8361317,36.81284 34.1772211,36.99404 L34.1772211,7.29844 L38.2490016,7.29844 Z M45.2472374,7.29844 L45.246839,38.05924 C44.0074976,38.38764 42.6749366,38.38804 41.4363919,38.05884 L41.4363919,7.29844 L45.2472374,7.29844 Z M46.8407333,4.09844 C47.7195463,4.09844 48.4342293,4.81604 48.4342293,5.69844 L48.4342293,39.19844 C48.4342293,39.84164 48.0529854,40.42044 47.4625951,40.67204 C46.1579203,41.22604 44.7715789,41.50684 43.3414163,41.50684 C41.9240016,41.50684 40.5476195,41.23004 39.2513106,40.68364 L37.6259447,40.14644 C36.7140667,39.84444 35.7101642,39.84404 34.7986846,40.14724 L33.0848797,40.71724 C32.5980667,40.87884 32.0622537,40.79524 31.6495382,40.49444 C31.2368228,40.19524 30.9902293,39.71044 30.9902293,39.19844 L30.9902293,7.29844 L17.969774,7.29844 L17.969774,39.19844 C17.969774,39.71044 17.7231805,40.19524 17.3092699,40.49524 C16.8977496,40.79484 16.3607415,40.87844 15.875522,40.71724 L14.1613187,40.14724 C13.249839,39.84444 12.2459366,39.84364 11.3344569,40.14644 L9.65053008,40.70564 C8.40361951,41.23364 7.03719675,41.50684 5.61818862,41.50684 C4.18802602,41.50684 2.80208293,41.22604 1.49860325,40.67244 C0.907814634,40.42124 0.526172358,39.84284 0.526172358,39.19884 L0.525773984,5.69844 C0.525773984,5.27124 0.691497561,4.86924 0.992269919,4.56724 C1.29344065,4.26484 1.69340813,4.09844 2.11926992,4.09844 L46.8407333,4.09844 Z M1.6,-1 L47.3600033,-1 C48.2436589,-1 48.9600033,-0.2836556 48.9600033,0.6 C48.9600033,1.4836556 48.2436589,2.2 47.3600033,2.2 L1.6,2.2 C0.7163444,2.2 -2.55687168e-13,1.4836556 -2.55795385e-13,0.6 C-2.55903601e-13,-0.2836556 0.7163444,-1 1.6,-1 Z" id="Fill-3"></path>
            </g>
        </g>
    </g>
</svg>