<?xml version="1.0" encoding="UTF-8"?>
<svg width="100px" height="100px" viewBox="0 0 100 100" version="1.1" xmlns="http://www.w3.org/2000/svg" xmlns:xlink="http://www.w3.org/1999/xlink">
    <!-- Generator: Sketch 54.1 (76490) - https://sketchapp.com -->
    <title>窗帘-关闭</title>
    <desc>Created with Sketch.</desc>
    <g id="窗帘-关闭" stroke="none" stroke-width="1" fill="none" fill-rule="evenodd">
        <g id="编组-23复制">
            <circle id="椭圆形复制-20" fill="#FFFFFF" cx="50" cy="50" r="50"></circle>
            <g id="Fill-8" transform="translate(26.000000, 29.000000)" fill="#4DCDFF">
                <path d="M7.52361138,8.29844 L7.52361138,39.05884 C6.28347317,39.38804 4.9509122,39.38804 3.71276585,39.05884 L3.71276585,8.29844 L7.52361138,8.29844 Z M15.1379379,8.29844 L15.1379379,37.99444 C13.8117509,37.62964 12.3923444,37.63044 11.065759,37.99444 L11.065759,8.29844 L15.1379379,8.29844 Z M37.4578524,8.29844 L37.4578524,37.99444 C36.7989418,37.81284 36.115332,37.72124 35.4213646,37.72124 C34.7277954,37.72124 34.0449824,37.81284 33.3860719,37.99404 L33.3860719,8.29844 L37.4578524,8.29844 Z M44.8108455,8.29844 L44.8104472,39.05924 C43.5711057,39.38764 42.2385447,39.38804 41,39.05884 L41,8.29844 L44.8108455,8.29844 Z M29.8439242,8.29844 L29.8435259,39.05924 C28.6041844,39.38764 27.2716234,39.38804 26.0330787,39.05884 L26.0330787,8.29844 L29.8439242,8.29844 Z M22.4909311,8.29844 L22.4905327,39.05924 C21.2511912,39.38764 19.9186302,39.38804 18.6800855,39.05884 L18.6800855,8.29844 L22.4909311,8.29844 Z M37.6259447,41.14644 C33,40 30,42 24,42 C18,42 16,41 16,41 C14,40 12.2459366,40.84364 11.3344569,41.14644 L9.65053008,41.70564 C8.40361951,42.23364 7.03719675,42.50684 5.61818862,42.50684 C4.18802602,42.50684 2.80208293,42.22604 1.49860325,41.67244 C0.907814634,41.42124 0.526172358,40.84284 0.526172358,40.19884 L0.525773984,6.69844 C0.525773984,6.27124 0.691497561,5.86924 0.992269919,5.56724 C1.29344065,5.26484 1.69340813,5.09844 2.11926992,5.09844 L46.8407333,5.09844 C47.7195463,5.09844 48.4342293,5.81604 48.4342293,6.69844 L48.4342293,40.19844 C48.4342293,40.84164 48.0529854,41.42044 47.4625951,41.67204 C46.1579203,42.22604 44.7715789,42.50684 43.3414163,42.50684 C41.9240016,42.50684 40.5476195,42.23004 39.2513106,41.68364 L37.6259447,41.14644 Z M1.6,0 L47.3600033,-1.33226763e-15 C48.2436589,-1.49459253e-15 48.9600033,0.7163444 48.9600033,1.6 C48.9600033,2.4836556 48.2436589,3.2 47.3600033,3.2 L1.6,3.2 C0.7163444,3.2 1.082166e-16,2.4836556 0,1.6 C-1.082166e-16,0.7163444 0.7163444,1.623249e-16 1.6,0 Z" id="Fill-3"></path>
            </g>
        </g>
    </g>
</svg>