<?xml version="1.0" encoding="UTF-8"?>
<svg width="100px" height="100px" viewBox="0 0 100 100" version="1.1" xmlns="http://www.w3.org/2000/svg" xmlns:xlink="http://www.w3.org/1999/xlink">
    <!-- Generator: Sketch 54.1 (76490) - https://sketchapp.com -->
    <title>环绕灯-关闭</title>
    <desc>Created with Sketch.</desc>
    <g id="环绕灯-关闭" stroke="none" stroke-width="1" fill="none" fill-rule="evenodd">
        <g id="编组-22">
            <circle id="椭圆形复制-22" fill="#FFFFFF" cx="50" cy="50" r="50"></circle>
            <g id="编组-2" transform="translate(24.000000, 24.000000)" fill="#FFB909">
                <circle id="椭圆形复制-25" cx="25.8321932" cy="2.94339623" r="2.94339623"></circle>
                <path d="M35.1652905,8.18325587 C33.7299772,7.42008626 33.185097,5.63786372 33.9482667,4.20255043 C34.7114363,2.76723714 36.4936588,2.22235703 37.9289721,2.98552664 C39.3642854,3.74869626 39.9091655,5.53091879 39.1459959,6.96623208 C38.3828263,8.40154538 36.6006037,8.94642549 35.1652905,8.18325587 Z" id="椭圆形复制-25"></path>
                <path d="M42.3963171,14.5906189 C41.4639154,13.2590112 41.7875357,11.4236689 43.1191434,10.4912672 C44.4507511,9.55886543 46.2860934,9.88248579 47.2184952,11.2140935 C48.1508969,12.5457012 47.8272766,14.3810435 46.4956689,15.3134453 C45.1640612,16.245847 43.3287189,15.9222266 42.3963171,14.5906189 Z" id="椭圆形复制-25"></path>
                <path d="M45.7992318,23.5795433 C45.6011219,21.9660674 46.7485027,20.4974869 48.3619786,20.2993769 C49.9754546,20.101267 51.4440351,21.2486478 51.642145,22.8621238 C51.8402549,24.4755997 50.6928741,25.9441802 49.0793982,26.1422901 C47.4659222,26.3404001 45.9973417,25.1930192 45.7992318,23.5795433 Z" id="椭圆形复制-25"></path>
                <path d="M44.6425952,33.1211655 C45.2251555,31.6035438 46.9276895,30.8455269 48.4453111,31.4280873 C49.9629328,32.0106476 50.7209497,33.7131816 50.1383894,35.2308032 C49.555829,36.7484249 47.8532951,37.5064419 46.3356734,36.9238815 C44.8180517,36.3413211 44.0600348,34.6387872 44.6425952,33.1211655 Z" id="椭圆形复制-25"></path>
                <path d="M39.1520331,41.0707461 C40.360084,39.9830121 42.2211854,40.0805483 43.3089193,41.2885992 C44.3966532,42.4966502 44.299117,44.3577515 43.0910661,45.4454854 C41.8830152,46.5332193 40.0219139,46.4356832 38.9341799,45.2276322 C37.846446,44.0195813 37.9439822,42.15848 39.1520331,41.0707461 Z" id="椭圆形复制-25"></path>
                <path d="M30.6379277,45.530656 C32.2152335,45.1373895 33.812698,46.097243 34.2059645,47.6745488 C34.599231,49.2518546 33.6393775,50.849319 32.0620717,51.2425856 C30.4847659,51.6358521 28.8873014,50.6759986 28.4940349,49.0986928 C28.1007684,47.521387 29.0606219,45.9239225 30.6379277,45.530656 Z" id="椭圆形复制-25"></path>
                <path d="M21.0264588,45.530656 C22.6037646,45.9239225 23.5636181,47.521387 23.1703516,49.0986928 C22.7770851,50.6759986 21.1796206,51.6358521 19.6023148,51.2425856 C18.025009,50.849319 17.0651555,49.2518546 17.458422,47.6745488 C17.8516885,46.097243 19.449153,45.1373895 21.0264588,45.530656 Z" id="椭圆形复制-25"></path>
                <path d="M12.5123534,41.0707461 C13.7204043,42.15848 13.8179405,44.0195813 12.7302065,45.2276322 C11.6424726,46.4356832 9.78137126,46.5332193 8.57332035,45.4454854 C7.36526943,44.3577515 7.26773325,42.4966502 8.35546717,41.2885992 C9.4432011,40.0805483 11.3043024,39.9830121 12.5123534,41.0707461 Z" id="椭圆形复制-25"></path>
                <path d="M7.02179131,33.1211655 C7.60435169,34.6387872 6.84633474,36.3413211 5.32871308,36.9238815 C3.81109141,37.5064419 2.10855748,36.7484249 1.5259971,35.2308032 C0.943436724,33.7131816 1.70145367,32.0106476 3.21907533,31.4280873 C4.736697,30.8455269 6.43923093,31.6035438 7.02179131,33.1211655 Z" id="椭圆形复制-25"></path>
                <path d="M5.86515466,23.5795433 C5.66704473,25.1930192 4.19846422,26.3404001 2.5849883,26.1422901 C0.97151237,25.9441802 -0.175868469,24.4755997 0.0222414643,22.8621238 C0.220351397,21.2486478 1.6889319,20.101267 3.30240783,20.2993769 C4.91588375,20.4974869 6.06326459,21.9660674 5.86515466,23.5795433 Z" id="椭圆形复制-25"></path>
                <path d="M9.26806936,14.5906189 C8.33566761,15.9222266 6.50032531,16.245847 5.16871761,15.3134453 C3.8371099,14.3810435 3.51348954,12.5457012 4.44589129,11.2140935 C5.37829304,9.88248579 7.21363534,9.55886543 8.54524304,10.4912672 C9.87685075,11.4236689 10.2004711,13.2590112 9.26806936,14.5906189 Z" id="椭圆形复制-25"></path>
                <path d="M16.499096,8.18325587 C15.0637827,8.94642549 13.2815602,8.40154538 12.5183906,6.96623208 C11.755221,5.53091879 12.3001011,3.74869626 13.7354144,2.98552664 C15.1707277,2.22235703 16.9529502,2.76723714 17.7161198,4.20255043 C18.4792894,5.63786372 17.9344093,7.42008626 16.499096,8.18325587 Z" id="椭圆形复制-25"></path>
            </g>
        </g>
    </g>
</svg>