<?xml version="1.0" encoding="UTF-8"?>
<svg width="100px" height="100px" viewBox="0 0 100 100" version="1.1" xmlns="http://www.w3.org/2000/svg" xmlns:xlink="http://www.w3.org/1999/xlink">
    <!-- Generator: Sketch 54.1 (76490) - https://sketchapp.com -->
    <title>筒灯-关闭</title>
    <desc>Created with Sketch.</desc>
    <g id="筒灯-关闭" stroke="none" stroke-width="1" fill="none" fill-rule="evenodd">
        <g id="编组-14">
            <circle id="椭圆形复制-30" fill="#FFFFFF" cx="50" cy="50" r="50"></circle>
            <g id="编组-16" transform="translate(33.000000, 23.000000)">
                <rect id="矩形复制" stroke="#FFB909" fill="#FFB909" x="1.5" y="40.5" width="32" height="1"></rect>
                <rect id="矩形复制-5" stroke="#FFB909" fill="#FFB909" x="1.5" y="34.5" width="32" height="1"></rect>
                <rect id="矩形复制-6" stroke="#FFB909" fill="#FFB909" x="1.5" y="28.5" width="32" height="1"></rect>
                <path d="M1.5,48.5 L32.5,48.5 L32.5,10 C32.5,5.30557963 28.6944204,1.5 24,1.5 L10,1.5 C5.30557963,1.5 1.5,5.30557963 1.5,10 L1.5,48.5 Z" id="矩形复制-2" stroke="#FFB909" stroke-width="3"></path>
                <g id="编组-10" transform="translate(6.000000, 51.000000)" fill="#FFB909">
                    <rect id="矩形" transform="translate(11.000000, 7.500000) scale(1, -1) translate(-11.000000, -7.500000) " x="10.0434783" y="5.5" width="1.91304348" height="4" rx="0.956521739"></rect>
                    <path d="M16.985766,3.34677912 L17.0077413,3.34726746 C17.542619,3.35915363 17.9733915,3.7899262 17.9852777,4.3248039 L18.0292443,6.30330086 C18.0407285,6.82008905 17.6310986,7.24833842 17.1143105,7.2598226 C17.1004495,7.26013062 17.0865835,7.26013062 17.0727226,7.2598226 L17.0507473,7.25933426 C16.5158696,7.24744809 16.0850971,6.81667552 16.0732109,6.28179782 L16.0292443,4.30330086 C16.0177601,3.78651267 16.4273899,3.3582633 16.9441781,3.34677912 C16.9580391,3.3464711 16.9719051,3.3464711 16.985766,3.34677912 Z" id="矩形" transform="translate(17.029244, 5.303301) scale(1, -1) rotate(45.000000) translate(-17.029244, -5.303301) "></path>
                    <path d="M20.0869565,-0.913043478 L20.0869565,-0.913043478 C20.6392413,-0.913043478 21.0869565,-0.465328228 21.0869565,0.0869565217 L21.0869565,1.91304348 C21.0869565,2.46532823 20.6392413,2.91304348 20.0869565,2.91304348 L20.0869565,2.91304348 C19.5346718,2.91304348 19.0869565,2.46532823 19.0869565,1.91304348 L19.0869565,0.0869565217 C19.0869565,-0.465328228 19.5346718,-0.913043478 20.0869565,-0.913043478 Z" id="矩形" transform="translate(20.086957, 1.000000) scale(1, -1) rotate(90.000000) translate(-20.086957, -1.000000) "></path>
                    <path d="M1.91304348,-0.913043478 L1.91304348,-0.913043478 C2.46532823,-0.913043478 2.91304348,-0.465328228 2.91304348,0.0869565217 L2.91304348,1.91304348 C2.91304348,2.46532823 2.46532823,2.91304348 1.91304348,2.91304348 L1.91304348,2.91304348 C1.36075873,2.91304348 0.913043478,2.46532823 0.913043478,1.91304348 L0.913043478,0.0869565217 C0.913043478,-0.465328228 1.36075873,-0.913043478 1.91304348,-0.913043478 Z" id="矩形" transform="translate(1.913043, 1.000000) scale(1, -1) rotate(270.000000) translate(-1.913043, -1.000000) "></path>
                    <path d="M4.99225874,3.34726746 L5.01423396,3.34677912 C5.53102215,3.33529494 5.95927152,3.74492477 5.9707557,4.26171296 C5.97106372,4.27557388 5.97106372,4.28943994 5.9707557,4.30330086 L5.9267891,6.28179782 C5.91490293,6.81667552 5.48413036,7.24744809 4.94925266,7.25933426 L4.92727744,7.2598226 C4.41048925,7.27130678 3.98223988,6.86167695 3.9707557,6.34488876 C3.97044768,6.33102784 3.97044768,6.31716178 3.9707557,6.30330086 L4.0147223,4.3248039 C4.02660847,3.7899262 4.45738104,3.35915363 4.99225874,3.34726746 Z" id="矩形" transform="translate(4.970756, 5.303301) scale(1, -1) rotate(315.000000) translate(-4.970756, -5.303301) "></path>
                </g>
                <path d="M11,49 C11,52.3137085 13.6862915,55 17,55 C20.3137085,55 23,52.3137085 23,49 L11,49 Z" id="路径" stroke="#FFB909" fill="#FFB909"></path>
            </g>
        </g>
    </g>
</svg>