<?xml version="1.0" standalone="no"?><!DOCTYPE svg PUBLIC "-//W3C//DTD SVG 1.1//EN" "http://www.w3.org/Graphics/SVG/1.1/DTD/svg11.dtd"><svg t="1595330846603" class="icon" viewBox="0 0 1024 1024" version="1.1" xmlns="http://www.w3.org/2000/svg" p-id="7994" xmlns:xlink="http://www.w3.org/1999/xlink" width="200" height="200"><defs><style type="text/css"></style></defs><path d="M512 959.7c-218.3 0-396-177.6-396-396C116 424.6 190.4 294 310.2 223c12.5-7.4 28.6-3.3 36 9.2 7.4 12.5 3.3 28.6-9.2 36-103.9 61.6-168.4 174.9-168.4 295.5 0 189.3 154 343.4 343.4 343.4s343.4-154 343.4-343.4c0-120.5-61.5-230.1-164.4-293.1-12.4-7.6-16.3-23.8-8.7-36.2 7.6-12.4 23.8-16.3 36.2-8.7 118.7 72.6 189.5 199 189.5 338 0 218.3-177.7 396-396 396z" p-id="7995" fill="#ffffff"></path><path d="M517.4 510.8c-14.5 0-26.3-11.8-26.3-26.3V90.6c0-14.5 11.8-26.3 26.3-26.3s26.3 11.8 26.3 26.3v393.9c0 14.5-11.7 26.3-26.3 26.3z" p-id="7996" fill="#ffffff"></path></svg>