<?xml version="1.0" standalone="no"?><!DOCTYPE svg PUBLIC "-//W3C//DTD SVG 1.1//EN" "http://www.w3.org/Graphics/SVG/1.1/DTD/svg11.dtd"><svg t="1595328578307" class="icon" viewBox="0 0 1024 1024" version="1.1" xmlns="http://www.w3.org/2000/svg" p-id="13408" width="200" height="200" xmlns:xlink="http://www.w3.org/1999/xlink"><defs><style type="text/css"></style></defs><path d="M665.7 648.8c29.7-55.8 28.7-121.7-2.8-176.1l-112-193.6c-8.1-14.1-22.7-22.4-38.9-22.4s-30.8 8.4-38.9 22.4L361 472.7c-31.5 54.4-32.6 120.2-2.8 176.1 28.5 53.6 81.1 88 140.7 92 4.3 0.3 8.7 0.4 13.1 0.4s8.8-0.1 13.1-0.4c59.5-4.1 112.1-38.4 140.6-92z m-47.5-25.3c-20 37.6-55.3 60.7-96.8 63.5-6.2 0.4-12.6 0.4-18.9 0-41.5-2.8-76.7-26-96.8-63.5-20.9-39.3-20.2-85.6 1.9-123.8L512 319.5l104.3 180.2c22.1 38.2 22.8 84.5 1.9 123.8zM373.6 177.7c-87.3 36.1-158.5 106.7-195.3 193.6-5.8 13.7 0.6 29.5 14.3 35.3 3.4 1.5 7 2.1 10.5 2.1 10.5 0 20.5-6.2 24.8-16.4 31.4-74 92-134.1 166.3-164.9 13.8-5.7 20.3-21.5 14.6-35.2-5.7-13.6-21.4-20.2-35.2-14.5z" p-id="13409" fill="#f2af8d"></path><path d="M84.8 403.1c2.8 0.9 5.5 1.3 8.3 1.3 11.4 0 22-7.3 25.6-18.7 41-127.2 141.6-227 269-267.1 14.2-4.5 22.1-19.6 17.6-33.8-4.5-14.2-19.6-22-33.8-17.6-144 45.3-257.7 158.2-304.1 302-4.5 14.1 3.2 29.3 17.4 33.9zM630.4 227.5c74.3 30.8 134.9 90.9 166.3 164.9 4.4 10.3 14.3 16.4 24.8 16.4 3.5 0 7.1-0.7 10.5-2.1 13.7-5.8 20.1-21.6 14.3-35.3-36.8-86.9-108-157.5-195.3-193.6-13.7-5.7-29.5 0.8-35.2 14.6-5.7 13.7 0.9 29.4 14.6 35.1z" p-id="13410" fill="#f2af8d"></path><path d="M637 118.6c127.4 40.1 227.9 140 269 267.1 3.7 11.4 14.3 18.7 25.6 18.7 2.7 0 5.5-0.4 8.3-1.3 14.2-4.6 21.9-19.8 17.4-33.9-46.4-143.8-160.1-256.7-304.1-302-14.2-4.4-29.3 3.4-33.8 17.6-4.5 14.2 3.4 29.3 17.6 33.8zM394.2 798c-74.3-30.8-134.9-90.9-166.3-164.9-5.8-13.7-21.6-20.1-35.3-14.3-13.7 5.8-20.1 21.6-14.3 35.3 36.9 86.9 108 157.5 195.3 193.6 3.4 1.4 6.9 2.1 10.3 2.1 10.6 0 20.6-6.3 24.9-16.7 5.7-13.7-0.8-29.4-14.6-35.1z" p-id="13411" fill="#f2af8d"></path><path d="M387.7 906.9c-127.4-40.1-227.9-140-269-267.1-4.6-14.2-19.8-22-33.9-17.4-14.2 4.6-21.9 19.8-17.4 33.9 46.4 143.8 160.1 256.7 304.1 302 2.7 0.8 5.4 1.3 8.1 1.3 11.5 0 22.1-7.4 25.7-18.9 4.5-14.2-3.4-29.3-17.6-33.8zM640.7 849.8c3.4 0 6.9-0.7 10.3-2.1 87.3-36.1 158.5-106.7 195.3-193.6 5.8-13.7-0.6-29.5-14.3-35.3-13.7-5.8-29.5 0.6-35.3 14.3-31.4 74-92 134.1-166.3 164.9-13.8 5.7-20.3 21.5-14.6 35.2 4.3 10.3 14.4 16.6 24.9 16.6z" p-id="13412" fill="#f2af8d"></path><path d="M939.9 622.4c-14.2-4.6-29.4 3.2-33.9 17.4-41 127.2-141.6 227-269 267.1-14.2 4.5-22.1 19.6-17.6 33.8 3.6 11.5 14.2 18.9 25.7 18.9 2.7 0 5.4-0.4 8.1-1.3 144-45.3 257.7-158.2 304.1-302 4.5-14.2-3.3-29.3-17.4-33.9z" p-id="13413" fill="#f2af8d"></path></svg>