<?xml version="1.0" standalone="no"?><!DOCTYPE svg PUBLIC "-//W3C//DTD SVG 1.1//EN" "http://www.w3.org/Graphics/SVG/1.1/DTD/svg11.dtd"><svg t="1595991044435" class="icon" viewBox="0 0 1024 1024" version="1.1" xmlns="http://www.w3.org/2000/svg" p-id="2684" xmlns:xlink="http://www.w3.org/1999/xlink" width="200" height="200"><defs><style type="text/css"></style></defs><path d="M511.673 958.855c-246.847 0-447.66-200.814-447.66-447.66s200.814-447.66 447.66-447.66 447.66 200.814 447.66 447.66-200.814 447.66-447.66 447.66z m0-834.826c-213.48 0-387.166 173.686-387.166 387.166S298.193 898.36 511.673 898.36s387.166-173.686 387.166-387.166-173.686-387.165-387.166-387.165z" p-id="2685" fill="#ff0000"></path><path d="M511.676 627.122c-14.678 0-26.975-11.108-28.463-25.71L465.644 429.02l-11.619-114.007c0-31.708 25.943-57.651 57.651-57.651 31.708 0 57.651 25.943 57.651 57.651l-11.752 115.319-17.435 171.079c-1.489 14.604-13.786 25.711-28.464 25.711z" p-id="2686" fill="#ff0000"></path><path d="M511.676 715.886m-49.152 0a49.152 49.152 0 1 0 98.304 0 49.152 49.152 0 1 0-98.304 0Z" p-id="2687" fill="#ff0000"></path></svg>