<?xml version="1.0" standalone="no"?><!DOCTYPE svg PUBLIC "-//W3C//DTD SVG 1.1//EN" "http://www.w3.org/Graphics/SVG/1.1/DTD/svg11.dtd"><svg t="1595328665901" class="icon" viewBox="0 0 1024 1024" version="1.1" xmlns="http://www.w3.org/2000/svg" p-id="13983" xmlns:xlink="http://www.w3.org/1999/xlink" width="200" height="200"><defs><style type="text/css"></style></defs><path d="M460.7 297.1L348.5 491c-31.5 54.4-32.5 120.1-2.8 175.9 28.5 53.5 81 87.9 140.5 91.9 4.3 0.3 8.7 0.4 13.1 0.4s8.8-0.1 13.1-0.4c59.5-4 112.1-38.4 140.6-91.9 29.7-55.8 28.7-121.6-2.8-175.9L537.9 297.1c-8.1-13.9-22.5-22.3-38.6-22.3-16.1 0.1-30.5 8.4-38.6 22.3z m143.5 220.5c22.2 38.4 22.9 84.9 1.9 124.4-20.1 37.8-55.6 61.1-97.4 63.9-6.2 0.4-12.6 0.4-18.9 0-41.7-2.8-77.2-26.1-97.3-63.9-21-39.5-20.3-86 1.9-124.4l104.9-181.2 104.9 181.2zM136.4 630.6c-8.9-32.2-13.4-65.7-13.4-99.5 0-167 112.2-314.6 273-359.1l9.3 42.6c1.8 8.3 12.7 10.2 17.3 3.1l87-90.9c2.8-4.4 1.5-10.3-2.9-13.2l-117-46.1c-7.1-4.6-16.3 1.8-14.4 10.1l9.4 42.7c-0.8 0.1-1.5 0.3-2.3 0.5-184 50.6-312.5 219.3-312.5 410.3 0 38.6 5.2 76.8 15.3 113.6 3.2 11.8 13.9 19.5 25.6 19.5 2.3 0 4.7-0.3 7.1-1 14.1-3.9 22.4-18.5 18.5-32.6z" p-id="13984"></path><path d="M759.8 796c-23.5 23.8-50.2 44.5-79.4 61.4-144.7 83.5-328.6 60.1-447.5-56.8l32.2-29.4c6.3-5.7 2.5-16.2-6-16.6l-122.2-29.9c-5.3-0.2-9.7 3.8-10 9.1l18.6 124.4c-0.4 8.5 9.7 13.2 15.9 7.5l32.3-29.4c0.5 0.6 1 1.2 1.6 1.7 81.5 80.3 189.8 122.2 299.1 122.2 72.9 0 146.3-18.6 212.5-56.8 33.4-19.3 63.9-42.9 90.7-70.1 10.3-10.4 10.1-27.2-0.3-37.5-10.4-10.4-27.2-10.2-37.5 0.2zM950.4 654.8l-41.6-13.2c0.3-0.7 0.5-1.5 0.7-2.2 48.1-184.6-33.8-380.2-199.2-475.7-33.4-19.3-69.1-33.9-106.1-43.5-14.2-3.7-28.7 4.8-32.3 19-3.7 14.2 4.8 28.7 19 32.3 32.4 8.4 63.6 21.2 92.9 38.1C828.3 293 900.1 464 858.2 625.5l-41.5-13.2c-8.1-2.6-15.2 5.9-11.3 13.5l35.2 120.8c2.4 4.7 8.2 6.5 12.8 4.1l98.5-78.3c7.5-4 6.5-15.1-1.5-17.6z" p-id="13985"></path></svg>