<?xml version="1.0" standalone="no"?><!DOCTYPE svg PUBLIC "-//W3C//DTD SVG 1.1//EN" "http://www.w3.org/Graphics/SVG/1.1/DTD/svg11.dtd"><svg t="1595495864002" class="icon" viewBox="0 0 1024 1024" version="1.1" xmlns="http://www.w3.org/2000/svg" p-id="4401" xmlns:xlink="http://www.w3.org/1999/xlink" width="200" height="200"><defs><style type="text/css"></style></defs><path d="M527.520485 878.519628c-51.730175 0-101.919251-10.133801-149.171438-30.121018-45.635363-19.302625-86.618776-46.933939-121.8113-82.126462s-62.822814-76.175937-82.125439-121.812323c-19.986193-47.25321-30.121018-97.443309-30.121018-149.173484 0-51.732222 10.133801-101.922321 30.121018-149.176554 19.302625-45.636387 46.933939-86.6198 82.125439-121.812323 35.192523-35.1915 76.174913-62.822814 121.8113-82.124416 47.25321-19.986193 97.441263-30.119995 149.171438-30.119995 51.730175 0 101.919251 10.133801 149.171438 30.119995 45.636387 19.302625 86.618776 46.932915 121.810277 82.124416 35.192523 35.192523 62.823837 76.174913 82.126462 121.812323 19.986193 47.254234 30.121018 97.444333 30.121018 149.176554 0 51.731198-10.133801 101.921297-30.121018 149.173484-19.302625 45.636387-46.933939 86.6198-82.126462 121.812323s-76.174913 62.823837-121.810277 82.126462C629.439736 868.385826 579.25066 878.519628 527.520485 878.519628zM527.520485 132.519176c-96.896864 0-187.993628 37.734416-256.511141 106.250906-68.517513 68.517513-106.251929 159.617347-106.251929 256.516258 0 96.896864 37.734416 187.995675 106.251929 256.514211s159.615301 106.252952 256.511141 106.252952c96.895841 0 187.993628-37.734416 256.511141-106.252952s106.251929-159.616324 106.251929-256.514211c0-96.898911-37.734416-187.998745-106.251929-256.516258C715.514113 170.253592 624.416326 132.519176 527.520485 132.519176z" p-id="4402" fill="#8a8a8a"></path></svg>