<?xml version="1.0" standalone="no"?><!DOCTYPE svg PUBLIC "-//W3C//DTD SVG 1.1//EN" "http://www.w3.org/Graphics/SVG/1.1/DTD/svg11.dtd"><svg t="1595493708400" class="icon" viewBox="0 0 1024 1024" version="1.1" xmlns="http://www.w3.org/2000/svg" p-id="2245" xmlns:xlink="http://www.w3.org/1999/xlink" width="200" height="200"><defs><style type="text/css"></style></defs><path d="M880.628662 346.109786c-19.302625-45.636387-46.933939-86.6198-82.126462-121.812323-35.192523-35.1915-76.17389-62.822814-121.810277-82.124416-47.25321-19.986193-97.442286-30.119995-149.171438-30.119995-51.730175 0-101.919251 10.133801-149.171438 30.119995-45.636387 19.302625-86.618776 46.932915-121.8113 82.124416-35.192523 35.192523-62.822814 76.174913-82.125439 121.812323-19.986193 47.254234-30.121018 97.444333-30.121018 149.176554 0 51.731198 10.133801 101.921297 30.121018 149.173484 19.302625 45.636387 46.933939 86.6198 82.125439 121.812323s76.174913 62.823837 121.8113 82.126462c47.25321 19.986193 97.441263 30.121018 149.171438 30.121018 51.730175 0 101.919251-10.133801 149.171438-30.121018 45.635363-19.302625 86.618776-46.933939 121.810277-82.126462s62.823837-76.175937 82.126462-121.812323c19.986193-47.25321 30.121018-97.443309 30.121018-149.173484C910.74968 443.554118 900.615878 393.364019 880.628662 346.109786zM784.031627 751.800551c-68.517513 68.518536-159.614278 106.252952-256.511141 106.252952-96.895841 0-187.993628-37.734416-256.511141-106.252952S164.757414 592.183204 164.757414 495.28634c0-96.898911 37.734416-187.998745 106.251929-256.516258 68.517513-68.51649 159.614278-106.250906 256.511141-106.250906 96.895841 0 187.993628 37.734416 256.511141 106.250906 68.517513 68.517513 106.251929 159.617347 106.251929 256.516258C890.283556 592.183204 852.54914 683.282015 784.031627 751.800551z" p-id="2246" fill="#61a5e7"></path><path d="M527.520485 264.023232c-127.71987 0-231.261061 103.538121-231.261061 231.263108 0 127.721917 103.542214 231.263108 231.261061 231.263108s231.260038-103.541191 231.260038-231.263108C758.780523 367.561353 655.240355 264.023232 527.520485 264.023232z" p-id="2247" fill="#61a5e7"></path></svg>