<?xml version="1.0" encoding="UTF-8"?>
<svg width="99px" height="99px" viewBox="0 0 99 99" version="1.1" xmlns="http://www.w3.org/2000/svg" xmlns:xlink="http://www.w3.org/1999/xlink">
    <!-- Generator: Sketch 54.1 (76490) - https://sketchapp.com -->
    <title>编组 12</title>
    <desc>Created with Sketch.</desc>
    <defs>
        <polygon id="path-1" points="3.10579924e-05 0.676473996 47.9002469 0.676473996 47.9002469 51.5345622 3.10579924e-05 51.5345622"></polygon>
    </defs>
    <g id="五大系统" stroke="none" stroke-width="1" fill="none" fill-rule="evenodd">
        <g id="22五大系统-01介绍" transform="translate(-1410.000000, -796.000000)">
            <g id="编组-12" transform="translate(1411.000000, 797.000000)">
                <circle id="椭圆形复制-7" stroke="#32C5FF" stroke-width="2" fill-opacity="0.4" fill="#FFFFFF" cx="48.5" cy="48.5" r="48.5"></circle>
                <g id="编组-3" transform="translate(24.000000, 22.000000)">
                    <g id="编组">
                        <g transform="translate(0.000000, 0.057152)">
                            <mask id="mask-2" fill="white">
                                <use xlink:href="#path-1"></use>
                            </mask>
                            <g id="Clip-2"></g>
                            <path d="M34.8700905,51.5347436 L28.2230123,51.5347436 C27.0297613,51.5347436 26.0682798,50.5731373 26.0682798,49.3811084 C26.0700905,48.1945224 27.0279506,47.2292874 28.2230123,47.2292874 L34.8700905,47.2292874 C35.2684444,47.2292874 35.6468807,47.0714388 35.9365926,46.7811426 C36.2263045,46.4926607 36.3892675,46.0953177 36.3892675,45.688903 L36.3892675,33.8430017 C36.3892675,32.2010136 37.7110782,30.8656508 39.3588148,30.8656508 L42.76293,30.8656508 C38.4190617,22.3127976 38.417251,21.9136403 38.399144,21.3330478 C38.1112428,9.22225122 29.3637531,4.92586675 21.2880329,4.98211165 C12.125893,5.02021303 5.13659259,11.1871939 4.28375309,19.9795415 C4.15881481,21.1606844 3.12671605,22.0261301 1.93346502,21.9136403 C0.754699588,21.7975218 -0.114436214,20.7433835 0.0123127572,19.5604263 C1.08243621,8.49106754 9.82630453,0.723828571 21.2699259,0.67484108 L21.3966749,0.67484108 C33.944823,0.67484108 42.2559342,8.59448558 42.6905021,20.9157469 C43.0544527,21.8174797 44.6460576,25.1087134 47.5812016,30.8402499 C48.0519835,31.7728266 47.9958519,32.8596232 47.452642,33.7486554 C46.9112428,34.639502 45.9678683,35.171107 44.9176626,35.171107 L40.6824362,35.171107 L40.6824362,45.688903 C40.6824362,47.2238444 40.0649877,48.7315705 38.9803786,49.8201814 C37.8939588,50.9251215 36.4254815,51.5347436 34.8700905,51.5347436" id="Fill-1" fill="#32C5FF" mask="url(#mask-2)"></path>
                        </g>
                        <path d="M4.32213992,44.2757045 C4.19539095,44.4426249 4.03242798,44.5768869 3.83325103,44.6730475 C3.63407407,44.7710225 3.39868313,44.82001 3.12707819,44.82001 C2.6562963,44.82001 2.25794239,44.6530897 1.93201646,44.3210633 C1.60790123,43.989037 1.42502058,43.6243523 1.42502058,43.225195 C1.42502058,42.8423668 1.60609053,42.229116 1.95012346,41.3854425 L6.44246914,30.2924972 C6.65975309,29.7391199 6.82090535,29.2982325 6.96576132,28.9643918 C7.09251029,28.6305512 7.27358025,28.3221114 7.45283951,28.0336295 C7.65563786,27.7433332 7.9254321,27.5074675 8.25135802,27.324218 C8.57728395,27.1391542 8.97563786,27.0484366 9.46452675,27.0484366 C9.93711934,27.0466223 10.3336626,27.1409685 10.6595885,27.324218 C10.9855144,27.5074675 11.2390123,27.7487763 11.4381893,28.0445156 C11.639177,28.3420693 11.8166255,28.7158257 11.9995062,29.1639705 C12.1823868,29.6139297 12.3254321,29.9985722 12.4521811,30.3197124 L16.8340741,41.4761601 C17.0169547,41.9224906 17.141893,42.2726604 17.232428,42.5230409 C17.304856,42.7697928 17.34107,43.0147302 17.34107,43.2505959 C17.34107,43.653382 17.1762963,44.0180666 16.8340741,44.3392068 C16.5081481,44.6585327 16.1097942,44.82001 15.6734156,44.82001 C15.1682305,44.82001 14.7879835,44.6694188 14.5706996,44.3682365 C14.3371193,44.0670541 14.0637037,43.4864616 13.7558848,42.6282733 L12.9428807,40.4220219 L5.95176955,40.4220219 L5.13695473,42.5811002 C5.02831276,42.8459955 4.90156379,43.1526209 4.75670782,43.5009764 C4.59374486,43.8475176 4.44888889,44.1069698 4.32213992,44.2757045 Z M9.48263374,30.7152411 L6.89333333,37.8075413 L12.0194239,37.8075413 L9.48263374,30.7152411 Z" id="Fill-3" fill="#32C5FF"></path>
                        <path d="M21.0875885,44.8201914 C20.5642963,44.8183771 20.1478354,44.6441993 19.8200988,44.2922151 C19.4959835,43.9402309 19.3330206,43.4086259 19.3330206,42.6992145 L19.3348313,29.1587089 C19.3348313,28.4456687 19.4941728,27.9176924 19.8200988,27.5693369 C20.1478354,27.2209814 20.5624856,27.048618 21.0875885,27.048618 C21.5982058,27.0468037 22.012856,27.2246101 22.3206749,27.5765943 C22.6484115,27.9249498 22.8095638,28.4547405 22.8095638,29.1587089 L22.8113745,42.6992145 C22.8113745,43.4013685 22.6466008,43.9311592 22.3224856,44.2849577 C21.994749,44.642385 21.5782881,44.8201914 21.0875885,44.8201914 Z" id="Fill-5" fill="#32C5FF"></path>
                    </g>
                </g>
            </g>
        </g>
    </g>
</svg>