<?xml version="1.0" encoding="UTF-8"?>
<svg width="68px" height="68px" viewBox="0 0 68 68" version="1.1" xmlns="http://www.w3.org/2000/svg" xmlns:xlink="http://www.w3.org/1999/xlink">
    <!-- Generator: Sketch 54.1 (76490) - https://sketchapp.com -->
    <title>窗帘</title>
    <desc>Created with Sketch.</desc>
    <g id="五大系统（深背景）" stroke="none" stroke-width="1" fill="none" fill-rule="evenodd">
        <g id="22五大系统-01" transform="translate(-1189.000000, -791.000000)">
            <g id="窗帘" transform="translate(1189.000000, 791.000000)">
                <g id="编组-25">
                    <circle id="椭圆形复制-26" fill="#4DCDFF" cx="34" cy="34" r="34"></circle>
                    <g id="Fill-4" transform="translate(17.680000, 19.720000)" fill="#FFFFFF">
                        <path d="M5.11605574,4.9629392 L5.11605574,25.8800112 C4.27276176,26.1038672 3.36662029,26.1038672 2.52468078,25.8800112 L2.52468078,4.9629392 L5.11605574,4.9629392 Z M10.0522918,4.9629392 L10.0522918,25.1562192 C9.15048468,24.9081552 8.18528826,24.9086992 7.28321021,25.1562192 L7.28321021,4.9629392 L10.0522918,4.9629392 Z M26.0093211,4.9629392 L26.0093211,25.1562192 C25.5612619,25.0327312 25.0964073,24.9704432 24.6245094,24.9704432 C24.1528824,24.9704432 23.6885696,25.0327312 23.2405104,25.1559472 L23.2405104,4.9629392 L26.0093211,4.9629392 Z M30.7681214,4.9629392 L30.7678505,25.8802832 C29.9250983,26.1035952 29.0189569,26.1038672 28.1767465,25.8800112 L28.1767465,4.9629392 L30.7681214,4.9629392 Z M31.8516987,2.7869392 C32.4492915,2.7869392 32.9352759,3.2749072 32.9352759,3.8749392 L32.9352759,26.6549392 C32.9352759,27.0923152 32.67603,27.4858992 32.2745647,27.6569872 C31.3873858,28.0337072 30.4446736,28.2246512 29.4721631,28.2246512 C28.5083211,28.2246512 27.5723813,28.0364272 26.6908912,27.6648752 L25.5856424,27.2995792 C24.9655653,27.0942192 24.2829117,27.0939472 23.6631055,27.3001232 L22.4977182,27.6877232 C22.1666853,27.7976112 21.8023325,27.7407632 21.521686,27.5362192 C21.2410395,27.3327632 21.0733559,27.0030992 21.0733559,26.6549392 L21.0733559,4.9629392 L12.2194463,4.9629392 L12.2194463,26.6549392 C12.2194463,27.0030992 12.0517627,27.3327632 11.7703035,27.5367632 C11.4904697,27.7404912 11.1253042,27.7973392 10.7953549,27.6877232 L9.62969672,27.3001232 C9.00989054,27.0942192 8.32723688,27.0936752 7.7074307,27.2995792 L6.56236046,27.6798352 C5.71446127,28.0388752 4.78529379,28.2246512 3.82036826,28.2246512 C2.84785769,28.2246512 1.90541639,28.0337072 1.01905021,27.6572592 C0.617313951,27.4864432 0.357797203,27.0931312 0.357797203,26.6552112 L0.357526309,3.8749392 C0.357526309,3.5844432 0.470218341,3.3110832 0.674743545,3.1057232 C0.879539642,2.9000912 1.15151753,2.7869392 1.44110354,2.7869392 L31.8516987,2.7869392 Z M1.088,-0.68 L32.2048022,-0.68 C32.805688,-0.68 33.2928022,-0.192885808 33.2928022,0.408 C33.2928022,1.00888581 32.805688,1.496 32.2048022,1.496 L1.088,1.496 C0.487114192,1.496 -2.55721798e-13,1.00888581 -2.55795385e-13,0.408 C-2.55868972e-13,-0.192885808 0.487114192,-0.68 1.088,-0.68 Z" id="Fill-3"></path>
                    </g>
                </g>
            </g>
        </g>
    </g>
</svg>