<?xml version="1.0" encoding="UTF-8"?>
<svg width="99px" height="99px" viewBox="0 0 99 99" version="1.1" xmlns="http://www.w3.org/2000/svg" xmlns:xlink="http://www.w3.org/1999/xlink">
    <!-- Generator: Sketch 54.1 (76490) - https://sketchapp.com -->
    <title>编组 9</title>
    <desc>Created with Sketch.</desc>
    <g id="五大系统" stroke="none" stroke-width="1" fill="none" fill-rule="evenodd">
        <g id="22五大系统-01介绍" transform="translate(-1083.000000, -796.000000)">
            <g id="编组-9" transform="translate(1084.000000, 797.000000)">
                <circle id="椭圆形复制-6" stroke="#32C5FF" stroke-width="2" fill-opacity="0.4" fill="#FFFFFF" cx="48.5" cy="48.5" r="48.5"></circle>
                <g id="云平台" transform="translate(24.000000, 24.000000)" fill-rule="nonzero">
                    <rect id="矩形" fill="#000000" opacity="0" x="0" y="0" width="49" height="49"></rect>
                    <path d="M42.899384,42.4781517 L38.4640657,38.4173782 L38.4640657,33.1506781 C43.8850103,32.1908589 48,27.4409844 48,21.7559016 C48,16.3169262 44.1560575,11.6162732 38.9075975,10.4595681 C36.6899384,4.25765947 30.6776181,0 24,0 C17.3223819,0 11.3347023,4.25765947 9.09240246,10.4595681 C3.84394251,11.6162732 0,16.3169262 0,21.7559016 C0,27.5640382 4.31211499,32.3877449 9.90554415,33.1998995 L9.90554415,38.4173782 L7.93429158,40.2385736 C7.56468172,40.1155198 7.17043121,40.0170768 6.7761807,40.0170768 C4.90349076,40.0170768 3.40041068,41.5183325 3.40041068,43.3887494 C3.40041068,45.2591662 4.90349076,46.7604219 6.7761807,46.7604219 C8.64887064,46.7604219 10.1519507,45.2591662 10.1519507,43.3887494 C10.1519507,43.0688096 10.1026694,42.7734807 10.0287474,42.4781517 L13.0102669,39.7463586 L13.0102669,33.3229533 L18.4312115,33.3229533 L18.4312115,36.4239076 C17.2977413,36.965344 16.5338809,38.1220492 16.5338809,39.4510296 C16.5338809,41.3214465 18.036961,42.8227022 19.9096509,42.8227022 C21.7823409,42.8227022 23.2854209,41.3214465 23.2854209,39.4510296 C23.2854209,38.1712707 22.5708419,37.063787 21.5112936,36.4731291 L21.5112936,33.3229533 L26.8090349,33.3229533 L26.8090349,39.8201909 C25.724846,40.3862381 24.9856263,41.5183325 24.9856263,42.8227022 C24.9856263,44.693119 26.4887064,46.1943747 28.3613963,46.1943747 C30.2340862,46.1943747 31.7371663,44.693119 31.7371663,42.8227022 C31.7371663,41.5183325 30.9979466,40.3862381 29.9137577,39.8201909 L29.9137577,33.3229533 L35.4579055,33.3229533 L35.4579055,39.7463586 L40.8788501,44.7423405 C40.8049281,45.0130588 40.7556468,45.3083877 40.7556468,45.6283275 C40.7556468,47.4987443 42.2587269,49 44.1314168,49 C46.0041068,49 47.5071869,47.4987443 47.5071869,45.6283275 C47.5071869,43.7579106 45.9548255,42.2566549 44.0821355,42.2566549 C43.6632444,42.2566549 43.2689938,42.3304872 42.899384,42.4781517 Z M3.08008214,21.7559016 C3.08008214,17.5228528 6.2587269,13.9050728 10.4722793,13.3390256 L11.4579055,13.2159719 L11.7289528,12.2561527 C13.3059548,6.84178805 18.3572895,3.07634355 24,3.07634355 C29.6427105,3.07634355 34.6940452,6.84178805 36.2710472,12.2561527 L36.5420945,13.2159719 L37.5277207,13.3390256 C41.7412731,13.8804621 44.9199179,17.4982421 44.9199179,21.7559016 C44.9199179,26.4319437 41.100616,30.2466097 36.4188912,30.2466097 L11.5564682,30.2466097 C6.87474333,30.2466097 3.08008214,26.4319437 3.08008214,21.7559016 Z M34.5,26 L23.5,26 C22.6715729,26 22,25.3284271 22,24.5 C22,23.6715729 22.6715729,23 23.5,23 L34.5,23 C35.3284271,23 36,23.6715729 36,24.5 C36,25.3284271 35.3284271,26 34.5,26 Z M14.5,26 C13.6715729,26 13,25.3284271 13,24.5 C13,23.6715729 13.6715729,23 14.5,23 C15.3284271,23 16,23.6715729 16,24.5 C16,25.3284271 15.3284271,26 14.5,26 Z M17.5,26 C16.6715729,26 16,25.3284271 16,24.5 C16,23.6715729 16.6715729,23 17.5,23 C18.3284271,23 19,23.6715729 19,24.5 C19,25.3284271 18.3284271,26 17.5,26 Z M14.5,23 L17.5,23 L17.5,26 L14.5,26 L14.5,23 Z" id="形状" fill="#32C5FF"></path>
                </g>
            </g>
        </g>
    </g>
</svg>