<?xml version="1.0" encoding="UTF-8"?>
<svg width="68px" height="68px" viewBox="0 0 68 68" version="1.1" xmlns="http://www.w3.org/2000/svg" xmlns:xlink="http://www.w3.org/1999/xlink">
    <!-- Generator: Sketch 54.1 (76490) - https://sketchapp.com -->
    <title>窗帘-关闭</title>
    <desc>Created with Sketch.</desc>
    <g id="五大系统（深背景）" stroke="none" stroke-width="1" fill="none" fill-rule="evenodd">
        <g id="22五大系统-01" transform="translate(-1307.000000, -791.000000)">
            <g id="窗帘-关闭" transform="translate(1307.000000, 791.000000)">
                <g id="编组-23复制">
                    <circle id="椭圆形复制-20" fill="#FFFFFF" cx="34" cy="34" r="34"></circle>
                    <g id="Fill-8" transform="translate(17.680000, 19.720000)" fill="#4DCDFF">
                        <path d="M5.11605574,5.6429392 L5.11605574,26.5600112 C4.27276176,26.7838672 3.36662029,26.7838672 2.52468078,26.5600112 L2.52468078,5.6429392 L5.11605574,5.6429392 Z M10.2937978,5.6429392 L10.2937978,25.8362192 C9.39199061,25.5881552 8.42679419,25.5886992 7.52471614,25.8362192 L7.52471614,5.6429392 L10.2937978,5.6429392 Z M25.4713396,5.6429392 L25.4713396,25.8362192 C25.0232804,25.7127312 24.5584258,25.6504432 24.0865279,25.6504432 C23.6149009,25.6504432 23.1505881,25.7127312 22.7025289,25.8359472 L22.7025289,5.6429392 L25.4713396,5.6429392 Z M30.471375,5.6429392 L30.4711041,26.5602832 C29.6283519,26.7835952 28.7222104,26.7838672 27.88,26.5600112 L27.88,5.6429392 L30.471375,5.6429392 Z M20.2938685,5.6429392 L20.2935976,26.5602832 C19.4508454,26.7835952 18.5447039,26.7838672 17.7024935,26.5600112 L17.7024935,5.6429392 L20.2938685,5.6429392 Z M15.2938331,5.6429392 L15.2935622,26.5602832 C14.45081,26.7835952 13.5446686,26.7838672 12.7024582,26.5600112 L12.7024582,5.6429392 L15.2938331,5.6429392 Z M25.5856424,27.9795792 C22.44,27.2 20.4,28.56 16.32,28.56 C12.24,28.56 10.88,27.88 10.88,27.88 C9.52,27.2 8.32723688,27.7736752 7.7074307,27.9795792 L6.56236046,28.3598352 C5.71446127,28.7188752 4.78529379,28.9046512 3.82036826,28.9046512 C2.84785769,28.9046512 1.90541639,28.7137072 1.01905021,28.3372592 C0.617313951,28.1664432 0.357797203,27.7731312 0.357797203,27.3352112 L0.357526309,4.5549392 C0.357526309,4.2644432 0.470218341,3.9910832 0.674743545,3.7857232 C0.879539642,3.5800912 1.15151753,3.4669392 1.44110354,3.4669392 L31.8516987,3.4669392 C32.4492915,3.4669392 32.9352759,3.9549072 32.9352759,4.5549392 L32.9352759,27.3349392 C32.9352759,27.7723152 32.67603,28.1658992 32.2745647,28.3369872 C31.3873858,28.7137072 30.4446736,28.9046512 29.4721631,28.9046512 C28.5083211,28.9046512 27.5723813,28.7164272 26.6908912,28.3448752 L25.5856424,27.9795792 Z M1.088,0 L32.2048022,-8.8817842e-16 C32.805688,-9.98559352e-16 33.2928022,0.487114192 33.2928022,1.088 C33.2928022,1.68888581 32.805688,2.176 32.2048022,2.176 L1.088,2.176 C0.487114192,2.176 7.35872881e-17,1.68888581 0,1.088 C-7.35872881e-17,0.487114192 0.487114192,1.10380932e-16 1.088,0 Z" id="Fill-3"></path>
                    </g>
                </g>
            </g>
        </g>
    </g>
</svg>