<?xml version="1.0" encoding="UTF-8"?>
<svg width="99px" height="99px" viewBox="0 0 99 99" version="1.1" xmlns="http://www.w3.org/2000/svg" xmlns:xlink="http://www.w3.org/1999/xlink">
    <!-- Generator: Sketch 54.1 (76490) - https://sketchapp.com -->
    <title>编组 13</title>
    <desc>Created with Sketch.</desc>
    <defs>
        <polygon id="path-1" points="0 0.416156 58.4525643 0.416156 58.4525643 52.576636 0 52.576636"></polygon>
    </defs>
    <g id="五大系统" stroke="none" stroke-width="1" fill="none" fill-rule="evenodd">
        <g id="22五大系统-01介绍" transform="translate(-1733.000000, -796.000000)">
            <g id="编组-13" transform="translate(1734.000000, 797.000000)">
                <circle id="椭圆形复制-8" stroke="#32C5FF" stroke-width="2" fill-opacity="0.4" fill="#FFFFFF" cx="48.5" cy="48.5" r="48.5"></circle>
                <g id="编组-10" transform="translate(19.000000, 22.000000)">
                    <path d="M29.4991384,51.9999959 C28.6737507,51.9999959 28,51.1703456 28,50.1456096 L28.0017231,1.85653416 C28.0017231,0.831798177 28.6720276,4.11350598e-06 29.4991384,4.11350598e-06 C30.3262493,-0.00213968563 30.9982769,0.833941976 30.9982769,1.85867796 L31,50.1434658 C31,51.1682018 30.3245261,52.0021397 29.4991384,51.9999959" id="Fill-5" fill="#32C5FF"></path>
                    <path d="M47.5782967,33 L35.4423077,33 C34.6407967,33 34,32.3290043 34,31.5 C34,30.6688312 34.6387363,30 35.4423077,30 L47.5782967,30 C48.3633242,30 49,30.6709957 49,31.5 C49,32.3290043 48.3612637,33 47.5782967,33" id="Fill-7" fill="#32C5FF"></path>
                    <path d="M45.4792869,13 L35.5251273,13 C34.6842105,13 34,12.3273252 34,11.4989185 C34,10.6705119 34.6842105,10 35.5229202,10 L45.4792869,10 C46.3157895,10 47,10.6726748 47,11.4989185 C47,12.3251622 46.3157895,13 45.4792869,13" id="Fill-9" fill="#32C5FF"></path>
                    <path d="M22.4792869,13 L12.5229202,13 C11.6842105,13 11,12.3273252 11,11.4989185 C11.0022071,10.6705119 11.6820034,10 12.5229202,10 L22.4792869,10 C23.3179966,10 24,10.6726748 24,11.4989185 C24,12.3251622 23.3157895,13 22.4792869,13" id="Fill-11" fill="#32C5FF"></path>
                    <path d="M47.5782967,41.9999948 L35.4423077,41.9999948 C34.6407967,41.9999948 34,41.3290003 34,40.5021619 C34,39.673159 34.6387363,39.0021645 35.4423077,39.0021645 L47.5782967,39 C48.3633242,39 49,39.673159 49,40.5021619 C49,41.3268358 48.3612637,42.0021593 47.5782967,41.9999948" id="Fill-13" fill="#32C5FF"></path>
                    <path d="M23.5803571,33 L11.4258242,33 C10.6428571,33 10,32.3290043 10,31.5 C10,30.6688312 10.6407967,30 11.4237637,30 L23.5803571,30 C24.3633242,30 25,30.6709957 25,31.5 C25,32.3290043 24.3633242,33 23.5803571,33" id="Fill-15" fill="#32C5FF"></path>
                    <path d="M23.5803571,41.9999948 L11.4258242,41.9999948 C10.6428571,41.9999948 10,41.3290003 10,40.5021619 C10,39.673159 10.6407967,39.0021645 11.4237637,39.0021645 L23.5803571,39 C24.3633242,39 25,39.673159 25,40.5021619 C25,41.3268358 24.3633242,42.0021593 23.5803571,41.9999948" id="Fill-17" fill="#32C5FF"></path>
                    <path d="M52.2190701,23 L4.80373172,23 C3.80856939,23 3,22.3287197 3,21.5 C3,20.6712803 3.80649614,20.0017301 4.80165846,20.0017301 L52.2190701,20 C53.1934999,20 53.999996,20.6730104 54,21.5 C54.0020693,22.3287197 53.1934999,23 52.2190701,23" id="Fill-19" fill="#32C5FF"></path>
                    <g id="编组">
                        <mask id="mask-2" fill="white">
                            <use xlink:href="#path-1"></use>
                        </mask>
                        <g id="Clip-22"></g>
                        <path d="M50.6982786,52.576636 L7.75470714,52.576636 C3.47720714,52.576636 -0.00168571429,49.235516 -0.00168571429,45.131196 L0.000421428571,44.957356 L3.51935,7.768316 C3.56149286,3.706396 7.01720714,0.416156 11.2736357,0.416156 L47.17935,0.416156 C51.4168143,0.416156 54.8914929,3.706396 54.9336357,7.768316 L58.4525643,45.131196 C58.4525643,49.235516 54.9757786,52.576636 50.6982786,52.576636 L50.6982786,52.576636 Z M3.64577857,45.209636 C3.68581429,47.253316 5.52113571,48.902676 7.75470714,48.902676 L50.6982786,48.902676 C52.9339571,48.902676 54.7439929,47.253316 54.8072071,45.209636 L51.2882786,7.859476 C51.2882786,5.779756 49.4318857,4.090116 47.17935,4.090116 L11.2736357,4.090116 C8.99792143,4.090116 7.16470714,5.781876 7.16470714,7.861596 L7.16681429,8.035436 L3.64577857,45.209636 Z" id="Fill-21" fill="#32C5FF" mask="url(#mask-2)"></path>
                    </g>
                </g>
            </g>
        </g>
    </g>
</svg>