<?xml version="1.0" encoding="UTF-8"?>
<svg width="99px" height="99px" viewBox="0 0 99 99" version="1.1" xmlns="http://www.w3.org/2000/svg" xmlns:xlink="http://www.w3.org/1999/xlink">
    <!-- Generator: Sketch 54.1 (76490) - https://sketchapp.com -->
    <title>编组 5</title>
    <desc>Created with Sketch.</desc>
    <g id="五大系统" stroke="none" stroke-width="1" fill="none" fill-rule="evenodd">
        <g id="22五大系统-01介绍" transform="translate(-110.000000, -796.000000)">
            <g id="编组-5" transform="translate(111.000000, 797.000000)">
                <circle id="椭圆形" stroke="#32C5FF" stroke-width="2" fill-opacity="0.4" fill="#FFFFFF" cx="48.5" cy="48.5" r="48.5"></circle>
                <g id="连接" transform="translate(24.000000, 24.000000)" fill-rule="nonzero">
                    <rect id="矩形" fill="#000000" opacity="0" x="0" y="0" width="49" height="49"></rect>
                    <path d="M27.909482,31.7027963 C25.1909105,31.7027963 22.4723869,30.6679081 20.4024205,28.5979881 C19.8401939,28.0358698 19.8401939,27.1219663 20.4024205,26.5598001 C20.9646472,25.9976818 21.8784274,25.9976818 22.4406541,26.5598001 C25.4562773,29.5753079 30.3600983,29.5753079 33.3756256,26.5598001 L43.8578533,16.077711 C46.8734764,13.0622033 46.8734764,8.15849199 43.8578533,5.14298422 C40.8423739,2.12747645 35.938505,2.12747645 32.9229777,5.14298422 L24.0782011,13.9876109 C23.5159744,14.549777 22.6021463,14.549777 22.0399195,13.9876109 C21.4777887,13.4254447 21.4777887,12.5115891 22.0399195,11.9494229 L30.8847441,3.10484417 C35.024629,-1.03494806 41.759174,-1.03494806 45.8961828,3.10484417 C50.0331915,7.24458847 50.0360197,13.9789828 45.8961828,18.1159469 L35.4139071,28.5979401 C33.3438927,30.6679081 30.6252733,31.7027484 27.9067018,31.7027484 L27.909482,31.7027484 L27.909482,31.7027963 Z M10.612035,49 C7.89341559,49 5.17479615,47.965016 3.10487769,45.8951918 C-1.03495923,41.7553996 -1.03495923,35.0211011 3.10487769,30.884089 L13.5872013,20.402 C17.7270861,16.2622077 24.4616312,16.2622077 28.598592,20.402 C29.1607707,20.9641661 29.1607707,21.8779738 28.598592,22.4401879 C28.0364132,23.0023062 27.1225372,23.0023062 26.5604543,22.4401879 C23.5448311,19.4246802 18.6409622,19.4246802 15.6254349,22.4401879 L5.14306334,32.922277 C2.1274881,35.9376889 2.1274881,40.841544 5.14306334,43.8569559 C8.15859065,46.8723678 13.0624596,46.8723678 16.0780348,43.8569559 L24.9228114,35.0123292 C25.4850381,34.4501151 26.3989142,34.4501151 26.961045,35.0123292 C27.5232717,35.5744475 27.5232717,36.4882551 26.961045,37.0505172 L18.1163163,45.8951918 C16.0463499,47.965016 13.3277305,49 10.609111,49 L10.612035,49 Z" id="形状" stroke="#32C5FF" fill="#32C5FF"></path>
                </g>
            </g>
        </g>
    </g>
</svg>