<?xml version="1.0" encoding="UTF-8"?>
<svg width="99px" height="99px" viewBox="0 0 99 99" version="1.1" xmlns="http://www.w3.org/2000/svg" xmlns:xlink="http://www.w3.org/1999/xlink">
    <!-- Generator: Sketch 54.1 (76490) - https://sketchapp.com -->
    <title>编组 8</title>
    <desc>Created with Sketch.</desc>
    <g id="五大系统" stroke="none" stroke-width="1" fill="none" fill-rule="evenodd">
        <g id="22五大系统-01介绍" transform="translate(-759.000000, -796.000000)">
            <g id="编组-8" transform="translate(760.000000, 797.000000)">
                <circle id="椭圆形复制-5" stroke="#32C5FF" stroke-width="2" fill-opacity="0.4" fill="#FFFFFF" cx="48.5" cy="48.5" r="48.5"></circle>
                <g id="人机交互" transform="translate(22.000000, 22.000000)" fill-rule="nonzero">
                    <rect id="矩形" fill="#0091FF" opacity="0" x="0" y="0" width="53" height="53"></rect>
                    <path d="M50.3836435,27.2303015 C49.0055748,21.1431783 44.467158,15.1032927 40.6689415,16.1522912 C39.3096337,16.5269335 38.265849,17.2126918 37.5921644,18.1590709 C36.3675935,17.616654 35.1140285,17.5645298 33.8877521,18.0808847 C32.9891013,18.4498105 32.2373694,19.0832934 31.7421946,19.888941 C30.3300154,19.2064405 28.7063503,19.2211004 27.0042308,19.9834161 C26.642184,20.1430987 26.2986368,20.3385437 25.9792069,20.566555 C21.8313566,14.9680957 18.4424674,12.4417034 15.3878622,13.1030285 C11.0626368,14.0380054 11.0626368,17.6410872 14.3440775,22.3599514 L20.6443074,31.6641118 C17.187197,31.0435087 14.6868892,31.5761523 13.2047831,33.4672816 C10.7812242,36.5621529 13.3463422,39.4208366 19.3020548,41.9798065 L30.8126805,46.8697031 C31.669341,47.2176256 32.6598682,46.8452329 33.0383319,46.0329605 C33.4167956,45.2206882 33.0433737,44.268627 32.1992768,43.89374 L20.6954733,39.0071012 C18.3742462,38.0102268 16.8409743,37.0752499 16.1348846,36.2868722 C15.7255573,35.8307859 15.7136186,35.7037333 15.9370431,35.4186794 C16.7795752,34.3436188 19.3975645,34.3436188 23.9615643,35.9692407 C25.4999528,36.5181731 26.8814326,34.8762624 25.9894401,33.5584988 L17.1974301,20.5746994 C15.0126455,17.4325906 15.0126455,16.5253046 16.1417067,16.2809727 C17.637457,15.9584545 20.7841609,18.7959628 24.9644163,24.9629011 C25.2782339,25.6698348 25.7677211,26.4060884 26.4243504,27.1504864 C27.7819527,28.6914065 30.283966,26.9696808 29.1838988,25.2512128 C28.7815675,24.6221111 28.3722168,23.9971287 27.9559168,23.3763723 C27.9849108,23.1857934 28.162286,23.0636274 28.4522262,22.933317 C29.6495087,22.3974157 30.396531,22.6010256 31.2339465,23.7314681 C32.1651662,24.9857054 34.2305637,24.4237419 34.327779,22.8877084 C34.3960002,21.8093901 34.7081123,21.2946641 35.2624097,21.0617344 C35.7399582,20.8613822 36.3334829,21.0340434 37.259586,21.8761742 C37.7336453,22.3077262 38.4245753,22.4419117 39.0374591,22.2214548 C39.6503429,22.0009978 40.0769202,21.4648401 40.1351105,20.8418356 C40.2135649,19.9997048 40.6160701,19.5566496 41.6172165,19.2797401 C42.6678233,18.9897995 46.0481849,23.488765 47.0510368,27.9176887 C47.7724762,31.1037772 47.7724762,34.8909224 47.0339815,39.2758663 C46.8846843,40.1642266 47.5177021,40.9999749 48.4478663,41.1425623 C49.3780306,41.2851498 50.2531071,40.6805814 50.4024043,39.7922211 C51.2022982,35.0326349 51.2022982,30.8447854 50.3836435,27.2303015 Z" id="路径" fill="#32C5FF"></path>
                    <path d="M15.9222222,47.6428571 L9.04761111,47.6428571 C8.0455,47.6428571 7.22222222,46.7716786 7.22222222,45.6839643 L7.22222222,9.31603571 C7.22222222,8.22832143 8.0455,7.35714286 9.04761111,7.35714286 L27.9507778,7.35714286 C28.9545,7.35714286 29.7777778,8.22832143 29.7777778,9.31603571 C29.7777778,10.2430851 30.4990968,10.9946071 31.3888889,10.9946071 C32.278681,10.9946071 33,10.2430851 33,9.31603571 C33,6.38525 30.7460556,4 27.9523889,4 L9.04761111,4 C6.25394444,4 4,6.38525 4,9.31603571 L4,45.6856429 C4,48.61475 6.25394444,51 9.04761111,51 L15.9222222,51 C16.8120143,51 17.5333333,50.248478 17.5333333,49.3214286 C17.5333333,48.3943792 16.8120143,47.6428571 15.9222222,47.6428571 Z" id="路径" fill="#32C5FF"></path>
                </g>
            </g>
        </g>
    </g>
</svg>