<?xml version="1.0" encoding="UTF-8"?>
<svg width="68px" height="68px" viewBox="0 0 68 68" version="1.1" xmlns="http://www.w3.org/2000/svg" xmlns:xlink="http://www.w3.org/1999/xlink">
    <!-- Generator: Sketch 54.1 (76490) - https://sketchapp.com -->
    <title>灯光</title>
    <desc>Created with Sketch.</desc>
    <defs>
        <polygon id="path-1" points="0.0222978462 0.409752436 4.77393231 0.409752436 4.77393231 2.52272989 0.0222978462 2.52272989"></polygon>
    </defs>
    <g id="五大系统（深背景）" stroke="none" stroke-width="1" fill="none" fill-rule="evenodd">
        <g id="22五大系统-01" transform="translate(-1189.000000, -352.000000)">
            <g id="灯光" transform="translate(1189.000000, 352.000000)">
                <g id="编组-21">
                    <circle id="椭圆形复制-19" fill="#FFB909" cx="34" cy="34" r="34"></circle>
                    <g id="编组复制-3" transform="translate(15.456000, 16.128000)">
                        <path d="M24.9314736,25.3405936 C24.4427832,25.7321542 24.1597541,27.7615432 24.1602438,28.3822749 L24.1602438,29.2528367 C24.1602438,29.7990998 23.9398924,30.3232626 23.5481566,30.7095383 C23.1564208,31.0962945 22.6251292,31.3134545 22.0703334,31.3134545 L13.518741,31.3134545 C12.9644348,31.3134545 12.4331432,31.0962945 12.0409177,30.7095383 C11.6491819,30.3232626 11.4288305,29.7990998 11.4288305,29.2528367 L11.4288305,28.3822749 C11.4254029,27.7605824 11.1389461,25.7311933 10.6478073,25.3405936 C8.25430161,23.4462088 6.85923252,20.5846934 6.85384615,17.5583862 C7.00319542,11.7272557 11.9170313,7.11933185 17.8302831,7.26442548 C23.7317828,7.13038203 28.6314182,11.7291775 28.7861538,17.5482969 C28.7690154,20.5880565 27.3504422,23.4558177 24.9314736,25.3405936 Z" id="Stroke-1" stroke="#FFFFFF" stroke-width="2.1168"></path>
                        <path d="M13.2507692,34.7170909 L22.3227692,34.7170909" id="Stroke-3" stroke="#FFFFFF" stroke-width="1.8816" stroke-linecap="round"></path>
                        <path d="M17.5915385,0 C16.9605214,0 16.4492308,0.49604379 16.4492308,1.10824371 L16.4492308,3.42993811 C16.4492308,4.04166198 16.9605214,4.53818182 17.5915385,4.53818182 C18.2225555,4.53818182 18.7338462,4.04166198 18.7338462,3.42993811 L18.7338462,1.10824371 C18.7338462,0.49604379 18.2225555,0 17.5915385,0" id="Fill-5" fill="#FFFFFF"></path>
                        <path d="M7.04247597,4.88175822 C6.58123991,4.42365635 5.83331696,4.42365635 5.3720809,4.88175822 C4.91084483,5.33986008 4.91084483,6.08270072 5.3720809,6.54080258 L7.12213941,8.27896906 C7.58337548,8.73707092 8.33129842,8.73707092 8.79253449,8.27896906 C9.25377055,7.82086719 9.25377055,7.07802655 8.79253449,6.61992469 L7.04247597,4.88175822 Z" id="Fill-7" fill="#FFFFFF"></path>
                        <path d="M3.45340477,14.5221818 L1.115826,14.5221818 C0.499437581,14.5221818 0,15.0299981 0,15.6567273 C0,16.2834564 0.499437581,16.7912727 1.115826,16.7912727 L3.45340477,16.7912727 C4.06979319,16.7912727 4.56923077,16.2834564 4.56923077,15.6567273 C4.56923077,15.0299981 4.06979319,14.5221818 3.45340477,14.5221818" id="Fill-9" fill="#FFFFFF"></path>
                        <path d="M28.597524,4.88175822 L26.8474655,6.61992469 C26.3862294,7.07802655 26.3862294,7.82086719 26.8474655,8.27896906 C27.3087016,8.73707092 28.0566245,8.73707092 28.5178606,8.27896906 L30.2679191,6.54080258 C30.7291552,6.08270072 30.7291552,5.33986008 30.2679191,4.88175822 C29.806683,4.42365635 29.0587601,4.42365635 28.597524,4.88175822" id="Fill-11" fill="#FFFFFF"></path>
                        <g id="编组" transform="translate(30.613846, 14.068364)">
                            <mask id="mask-2" fill="white">
                                <use xlink:href="#path-1"></use>
                            </mask>
                            <g id="Clip-14"></g>
                            <path d="M3.61371323,0.409752436 L1.18271631,0.409752436 C0.541694769,0.409752436 0.0222978462,0.882630982 0.0222978462,1.46624116 C0.0222978462,2.04985135 0.541694769,2.52272989 1.18271631,2.52272989 L3.61371323,2.52272989 C4.25423631,2.52272989 4.77413169,2.04985135 4.77413169,1.46624116 C4.77413169,0.882630982 4.25423631,0.409752436 3.61371323,0.409752436" id="Fill-13" fill="#FFFFFF" mask="url(#mask-2)"></path>
                        </g>
                    </g>
                </g>
            </g>
        </g>
    </g>
</svg>