<?xml version="1.0" encoding="UTF-8"?>
<svg width="68px" height="68px" viewBox="0 0 68 68" version="1.1" xmlns="http://www.w3.org/2000/svg" xmlns:xlink="http://www.w3.org/1999/xlink">
    <!-- Generator: Sketch 54.1 (76490) - https://sketchapp.com -->
    <title>灯光-关闭</title>
    <desc>Created with Sketch.</desc>
    <g id="五大系统（深背景）" stroke="none" stroke-width="1" fill="none" fill-rule="evenodd">
        <g id="22五大系统-01" transform="translate(-1423.000000, -352.000000)">
            <g id="灯光-关闭" transform="translate(1423.000000, 352.000000)">
                <g id="编组-21">
                    <circle id="椭圆形复制-19" fill="#FFFFFF" cx="34" cy="34" r="34"></circle>
                    <g id="编组复制-3" transform="translate(23.000000, 20.000000)" stroke="#FFB909">
                        <path d="M18.1334226,18.0401423 C17.6432239,18.4308505 17.3593213,20.4558215 17.3598125,21.0752018 L17.3598125,21.9438683 C17.3598125,22.4889421 17.138781,23.0119638 16.7458361,23.3973986 C16.3528913,23.7833128 15.8199598,24 15.2634517,24 L6.68546551,24 C6.12944854,24 5.59651708,23.7833128 5.20308104,23.3973986 C4.81013619,23.0119638 4.58910471,22.4889421 4.58910471,21.9438683 L4.58910471,21.0752018 C4.58566644,20.4548627 4.29832552,18.4298917 3.80567091,18.0401423 C1.40477785,16.1498818 0.00540299174,13.2945961 0,10.2748774 C0.149810225,4.45644168 5.07881223,-0.141450437 11.0103148,0.00332731514 C16.930029,-0.130424317 21.8447868,4.45835926 22,10.26481 C21.9828087,13.2979519 20.5598571,16.1594698 18.1334226,18.0401423 Z" id="Stroke-1" stroke-width="2.1168"></path>
                        <path d="M6,27.5 L16,27.5" id="Stroke-3" stroke-width="1.8816" stroke-linecap="round"></path>
                    </g>
                </g>
            </g>
        </g>
    </g>
</svg>