<?xml version="1.0" encoding="UTF-8"?>
<svg width="99px" height="99px" viewBox="0 0 99 99" version="1.1" xmlns="http://www.w3.org/2000/svg" xmlns:xlink="http://www.w3.org/1999/xlink">
    <!-- Generator: Sketch 54.1 (76490) - https://sketchapp.com -->
    <title>编组 7</title>
    <desc>Created with Sketch.</desc>
    <g id="五大系统" stroke="none" stroke-width="1" fill="none" fill-rule="evenodd">
        <g id="22五大系统-01介绍" transform="translate(-436.000000, -796.000000)" stroke="#32C5FF">
            <g id="编组-7" transform="translate(437.000000, 797.000000)">
                <circle id="椭圆形复制-4" stroke-width="2" fill-opacity="0.4" fill="#FFFFFF" cx="48.5" cy="48.5" r="48.5"></circle>
                <g id="编组-11" transform="translate(24.000000, 23.000000)" fill="#32C5FF">
                    <path d="M39.0501451,50 C39.0146378,50 38.9959497,50 38.9567048,50 L33.5184834,49.8410903 C32.7354543,49.8167865 32.11688,49.160583 32.135568,48.3753822 C32.1561249,47.5883118 32.8288945,46.9825855 33.5932356,46.9956722 L39.031457,47.1527123 C39.4257748,47.1639295 39.816355,47.0124979 40.0985444,46.7320691 C40.3601771,46.475944 40.5078127,46.1263427 40.4909934,45.7543071 L40.2088039,32.9200131 C40.2088039,32.3516773 40.4143724,31.816993 40.8255094,31.4150449 C41.2385153,30.9981407 41.8159759,30.7794062 42.3953053,30.7850148 L46.6206725,30.8728825 C45.4620137,28.6631031 43.2007601,24.2005452 42.7503782,22.7329675 L42.7503782,22.7367066 C42.7335589,22.6806208 40.9581946,17.0421313 39.7621596,14.7575709 C37.7625387,10.9231736 34.8079586,7.95249729 30.978778,5.93527905 C23.1279298,1.80549676 12.7373762,1.79614913 5.09396534,5.91284474 C4.40250763,6.28488036 3.54285751,6.02688581 3.17096539,5.3351613 C2.79720447,4.64343678 3.05696831,3.77971591 3.74842602,3.40581076 C12.1972917,-1.13900623 23.6530639,-1.13526718 32.3056292,3.41702792 C36.6618128,5.70906644 40.0051042,9.08356034 42.283177,13.4414248 C43.5932091,15.9465892 45.3872615,21.6449036 45.4620137,21.8842029 C45.4788329,21.9290715 45.4788329,21.9776792 45.497521,22.0262868 C45.7797105,22.8825296 48.414725,28.3135018 49.7228882,30.6204965 C50.0966491,31.2804391 50.0947803,32.0619008 49.7023313,32.7068872 C49.3098824,33.3630907 48.5829174,33.7556911 47.7980194,33.7463435 L43.086763,33.6453891 L43.3315764,45.6926128 C43.3708213,46.8461101 42.9372586,47.9341741 42.1168534,48.7474178 C41.3132674,49.5569224 40.227492,50 39.0501451,50" id="Fill-23"></path>
                    <path d="M34.6181239,29 C33.9302982,29 33.3345436,28.5001146 33.2623309,27.8200584 C32.5781159,22.369011 29.8340343,18.041381 25.5536281,15.6373384 C21.1504604,13.1732388 15.6984036,13.0372276 10.9666682,15.2769969 C10.3005063,15.6020108 9.46825527,15.3211564 9.14510356,14.6534649 C8.80209337,13.9840071 9.08913874,13.1803044 9.77515913,12.8570569 C15.3192871,10.2322168 21.7263565,10.3982565 26.9076157,13.3021845 C31.980556,16.1389902 35.1940199,21.1784712 35.9901647,27.4915118 C36.0804305,28.2280921 35.5388355,28.8993164 34.7986556,28.9929345 C34.7282482,28.9964672 34.6704781,29 34.6181239,29" id="Fill-25"></path>
                    <path d="M24.6414374,32 C23.9442802,32 23.3398396,31.4335188 23.3041794,30.6970933 C23.1437085,28.1515827 21.8242806,25.8692117 19.8451388,24.7380767 C17.6716489,23.4954728 15.0666704,23.4570983 13.0322553,24.637572 C12.3743244,25.0140079 11.5541396,24.780106 11.1779243,24.1131201 C10.8052751,23.4406521 11.0370665,22.594585 11.6949974,22.2163218 C14.5495974,20.5625622 18.1691089,20.597282 21.1645667,22.3076897 C23.9442802,23.8956644 25.7986112,27.0442033 25.9965254,30.5234942 C26.0500157,31.2909848 25.4794523,31.9524887 24.7305879,32 C24.7127578,32 24.6770976,32 24.6414374,32" id="Fill-27"></path>
                    <path d="M17.6368909,28.1064591 C18.6953818,28.4622051 19.249744,29.5977177 18.8909335,30.6433955 C18.532123,31.6872765 17.40187,32.247846 16.3613196,31.8938967 C15.3207692,31.5381506 14.7484665,30.402638 15.1072769,29.3569603 C15.4642934,28.3094859 16.5945464,27.7525098 17.6368909,28.1064591" id="Fill-29"></path>
                    <path d="M15.9205064,48 C13.2660479,48 10.575227,47.3237161 8.11894385,45.9005471 C4.4117926,43.7620778 1.73733479,40.2784723 0.591917775,36.090714 C-0.551681114,31.9010978 -0.026243787,27.5071101 2.06459679,23.7188052 C2.24640901,23.3899529 2.53912669,23.1521387 2.90093302,23.0518109 C3.24637625,22.9514831 3.62818192,22.9979311 3.95544392,23.1818655 L29.3000679,37.7944293 C29.6091487,37.9802216 29.8455046,38.2867789 29.954592,38.647216 C30.0491343,39.007653 29.9909544,39.3959589 29.8273234,39.7229533 C26.9019647,45.0198916 21.4839604,48 15.9205064,48 L15.9205064,48 Z M3.86635593,26.3774929 C2.66639525,29.195962 2.44640246,32.3265622 3.26455747,35.3308235 C4.21361728,38.790276 6.41172707,41.6719145 9.46435431,43.4387992 C15.3932509,46.8480878 22.8093716,45.0644818 26.6637907,39.5278714 L3.86635593,26.3774929 Z" id="Fill-31"></path>
                </g>
            </g>
        </g>
    </g>
</svg>