<svg id="图层_1" data-name="图层 1" xmlns="http://www.w3.org/2000/svg" viewBox="0 0 1024 1024"><defs><style>.cls-1{fill:#3e3a39;}</style></defs><title>噪音</title><path class="cls-1" d="M701.15,360.09a35.56,35.56,0,0,0-18.69-19.63,37.6,37.6,0,0,0-23.89-4.21,36.72,36.72,0,0,0-12.83,68.13,206.17,206.17,0,0,1-10.62,296.84,35.46,35.46,0,0,0-12.72,27.21c0,19.8,16.42,35.89,36.72,35.89a37,37,0,0,0,26.43-11,35.43,35.43,0,0,0,15.59-18.14,273.78,273.78,0,0,0,0-375.09ZM829.61,229.2a37.6,37.6,0,0,0-33.68-20.46,37,37,0,0,0-37.49,36.61,36.43,36.43,0,0,0,18.08,31.35,356.23,356.23,0,0,1,102.8,250c0,108.55-49.21,205.77-126.69,272.07l.11.22a36,36,0,0,0-20.52,32.3c0,19.91,16.53,36.11,36.88,36.11a37.16,37.16,0,0,0,30.58-15.65l.11.06c92.63-79.25,151.46-195.37,151.46-325.16A425.44,425.44,0,0,0,829.61,229.2ZM428.09,157.34,244.38,344.19h-112c-47.93,0-71.45,25.67-71.45,71.12V652.1c0,44.72,24.3,71.07,71.45,71.07h112L428.09,910.07c52.77,49.32,133.09,27.58,133.09-54.31V211.59c0-82.67-81.31-102.56-133.09-54.25ZM500.55,808c0,51.66-24.53,51.34-49.54,28.09-43.75-40.37-131.43-128-185.66-182.46H179.13c-36.85,0-58.65-8.39-58.65-42.29V455.48c0-33.21,22.53-43.5,58.65-43.5h86.22c54-54.74,136-137.59,179.62-177.63,24.79-22.77,55.58-26.68,55.58,27.09Zm-3.62,12.16"/></svg>