<svg id="图层_1" data-name="图层 1" xmlns="http://www.w3.org/2000/svg" viewBox="0 0 1024 1024"><defs><style>.cls-1{fill:#3e3a39;}</style></defs><title>灯光</title><path class="cls-1" d="M616.23,967.87H406.43a29.94,29.94,0,0,1,0-59.87H615.74a29.94,29.94,0,1,1,0,59.87Z"/><path class="cls-1" d="M615,884.05H409c-18.28,0-36.58-4.92-51.21-15.87a81.11,81.11,0,0,1-32.91-65.42V781.06c-.07-13.53-5.45-43.82-10-53.87a2.53,2.53,0,0,0-.74-.93A278.44,278.44,0,0,1,213,511.34C217,349.2,351.09,221.17,511.37,224.79,671.73,221.15,805,349.37,809.19,510.24c-.45,84.93-37.77,163.09-102.52,216a2.54,2.54,0,0,0-.77,1c-4.5,10.14-9.84,40.64-9.82,53.83v19c0,17-4.17,34.06-13.76,48.09C666.66,871.08,641.86,884.05,615,884.05ZM504.73,284.58C379.48,284.58,276,385.42,272.84,512A218.5,218.5,0,0,0,354.5,682c28.09,22.77,30.23,98.21,30.24,98.94v21.86A21.68,21.68,0,0,0,391,817.94a20.92,20.92,0,0,0,14.93,6.23H615a20.9,20.9,0,0,0,14.9-6.21,21.72,21.72,0,0,0,6.27-15.21V781.06c0-.71,2.15-76.35,29.85-99l.32-.27a218.74,218.74,0,0,0,83-170.94C746,383.58,639.37,282.21,512,284.65l-.73,0-.72,0C508.64,284.61,506.68,284.58,504.73,284.58Z"/><rect class="cls-1" x="480.69" y="75.54" width="50.83" height="105.78" rx="23.77" ry="23.77"/><rect class="cls-1" x="63.99" y="434.38" width="105.78" height="50.83" rx="23.77" ry="23.77" transform="translate(-0.98 0.25) rotate(-0.12)"/><rect class="cls-1" x="215.54" y="176.48" width="50.83" height="105.78" rx="23.77" ry="23.77" transform="translate(-91.61 237.56) rotate(-45)"/><rect class="cls-1" x="852.33" y="434.38" width="105.78" height="50.83" rx="23.77" ry="23.77"/><rect class="cls-1" x="724.73" y="197.14" width="105.78" height="50.83" rx="23.77" ry="23.77" transform="translate(70.39 615.04) rotate(-45)"/></svg>