<?xml version="1.0" standalone="no"?><!DOCTYPE svg PUBLIC "-//W3C//DTD SVG 1.1//EN" "http://www.w3.org/Graphics/SVG/1.1/DTD/svg11.dtd"><svg t="1571650372263" class="icon" viewBox="0 0 1024 1024" version="1.1" xmlns="http://www.w3.org/2000/svg" p-id="14255" xmlns:xlink="http://www.w3.org/1999/xlink" width="16" height="16"><defs><style type="text/css"></style></defs><path d="M204.12231336 486.00562335c-84.96323554-84.96323554-91.09617064-218.73652483-18.7029178-310.9405338C178.0482882 180.8577083 170.86544095 186.98340263 164.07359547 193.77524811 72.31851444 285.53032914 72.31851444 434.29926022 164.07359547 526.05434125c91.75508102 91.75508102 240.52401211 91.75508102 332.27909313 0 6.79184549-6.79184549 12.91753982-13.97469274 18.71015856-21.3458001C422.85883819 577.10179399 289.09278967 570.97609966 204.12231336 486.00562335z" p-id="14256"></path><path d="M343.39859046 764.63782607C227.32899223 795.74418877 108.41377004 734.16141067 64.75914697 625.36878974c1.32506154 9.27543078 3.04112484 18.5653431 5.52471014 27.84077387 33.58994799 125.34502901 162.42502979 199.72949455 287.7700588 166.13954657 125.34502901-33.58994799 199.72949455-162.42502979 166.13954656-287.7700588-2.48358529-9.27543078-5.64780328-18.17434133-9.13061531-26.87051023C531.65145911 620.75641706 459.46094792 733.53870415 343.39859046 764.63782607z" p-id="14257"></path><path d="M654.3318835 783.34798464c-31.09912192 116.06235746-143.88140901 188.25286865-259.92928493 171.6642567 8.68892813 3.4900528 17.59507946 6.64703002 26.87051023 9.13061531 125.33778824 33.58270721 254.18011081-40.79451756 287.76281803-166.14678734 33.58994799-125.34502901-40.79451756-254.18011081-166.13954656-287.7700588-9.27543078-2.48358529-18.5653431-4.19964859-27.84077388-5.52471014C623.85546809 548.36316421 685.43824619 667.27838641 654.3318835 783.34798464z" p-id="14258"></path><path d="M826.00338097 523.41145894c84.96323554 84.96323554 91.09617064 218.73652483 18.70291779 310.94053381 7.36386659-5.78537798 14.55395461-11.91831308 21.3458001-18.71015857 91.75508102-91.75508102 91.75508102-240.52401211 0-332.27909313-91.75508102-91.75508102-240.52401211-91.75508102-332.27909313 0-6.79184549 6.79184549-12.91753982 13.97469274-18.71015857 21.3458001C607.25961537 432.32252907 741.04014543 438.4482234 826.00338097 523.41145894z" p-id="14259"></path><path d="M672.06453765 190.07521289c-125.34502901 33.58994799-199.72949455 162.42502979-166.13954657 287.7700588 2.48358529 9.27543078 5.64780328 18.17434133 9.13061531 26.87051023-16.58861195-116.04787591 55.60189924-228.830163 171.6642567-259.92928493 116.06235746-31.09912192 234.97757965 30.48365618 278.63220272 139.27627711-1.32506154-9.27543078-3.04112484-18.5653431-5.52471013-27.84077387C926.25188924 230.87697122 797.41680743 156.49250567 672.06453765 190.07521289z" p-id="14260"></path><path d="M375.78657006 226.07633843c31.09912192-116.06235746 143.88140901-188.25286865 259.92928492-171.6642567-8.68892813-3.4900528-17.59507946-6.64703002-26.87051023-9.13061531C483.50755652 11.69875921 354.66523394 86.07598398 321.08252672 211.42825376c-33.58994799 125.34502901 40.79451756 254.18011081 166.13954657 287.7700588 9.27543078 2.48358529 18.5653431 4.19964859 27.84077387 5.52471013C406.26298547 461.06115885 344.69468891 342.14593666 375.78657006 226.07633843z" p-id="14261"></path></svg>