<svg id="图层_1" data-name="图层 1" xmlns="http://www.w3.org/2000/svg" viewBox="0 0 1024 1024"><defs><style>.cls-1{fill:#2f2f2f;}</style></defs><title>模式</title><path class="cls-1" d="M471.11,465.59H192.19A123.71,123.71,0,0,1,68.62,342V168.13a105.15,105.15,0,0,1,105-105H347.53A123.71,123.71,0,0,1,471.11,186.67ZM173.65,124a44.19,44.19,0,0,0-44.15,44.15V342a62.76,62.76,0,0,0,62.69,62.69h218v-218A62.76,62.76,0,0,0,347.53,124Z"/><path class="cls-1" d="M347.53,953.86H173.65a105.15,105.15,0,0,1-105-105V674.95A123.72,123.72,0,0,1,192.19,551.36H471.11V830.29A123.71,123.71,0,0,1,347.53,953.86ZM192.19,612.25a62.77,62.77,0,0,0-62.69,62.7V848.83A44.19,44.19,0,0,0,173.65,893H347.53a62.76,62.76,0,0,0,62.69-62.69v-218Z"/><path class="cls-1" d="M835.81,465.59H556.89V186.67A123.71,123.71,0,0,1,680.47,63.1H854.35a105.15,105.15,0,0,1,105,105V342A123.71,123.71,0,0,1,835.81,465.59Zm-218-60.89h218A62.76,62.76,0,0,0,898.49,342V168.13A44.19,44.19,0,0,0,854.35,124H680.47a62.76,62.76,0,0,0-62.69,62.69Z"/><path class="cls-1" d="M854.35,953.86H680.47A123.71,123.71,0,0,1,556.89,830.29V551.36H835.81A123.72,123.72,0,0,1,959.38,674.95V848.83A105.15,105.15,0,0,1,854.35,953.86ZM617.78,612.25v218A62.76,62.76,0,0,0,680.47,893H854.35a44.19,44.19,0,0,0,44.15-44.15V674.95a62.77,62.77,0,0,0-62.69-62.7Z"/></svg>