<?xml version="1.0" standalone="no"?><!DOCTYPE svg PUBLIC "-//W3C//DTD SVG 1.1//EN" "http://www.w3.org/Graphics/SVG/1.1/DTD/svg11.dtd"><svg t="1572403076257" class="icon" viewBox="0 0 1024 1024" version="1.1" xmlns="http://www.w3.org/2000/svg" p-id="2041" xmlns:xlink="http://www.w3.org/1999/xlink" width="32" height="32"><defs><style type="text/css"></style></defs><path d="M472.615385 196.923077a39.384615 39.384615 0 0 1 78.76923 0v630.153846a39.384615 39.384615 0 0 1-78.76923 0V196.923077z" p-id="2042"></path><path d="M665.875692 925.262769a39.384615 39.384615 0 0 1-55.689846 55.689846l-126.030769-126.030769a39.384615 39.384615 0 0 1 55.689846-55.689846l126.030769 126.030769z" p-id="2043"></path><path d="M413.814154 980.952615a39.384615 39.384615 0 1 1-55.689846-55.689846l126.030769-126.030769a39.384615 39.384615 0 0 1 55.689846 55.689846l-126.030769 126.030769zM358.124308 98.737231a39.384615 39.384615 0 1 1 55.689846-55.689846l126.030769 126.030769a39.384615 39.384615 0 1 1-55.689846 55.689846l-126.030769-126.030769z" p-id="2044"></path><path d="M610.185846 43.047385a39.384615 39.384615 0 0 1 55.689846 55.689846l-126.030769 126.030769a39.384615 39.384615 0 0 1-55.689846-55.689846l126.030769-126.030769zM756.814769 309.76a39.384615 39.384615 0 0 1 42.220308 66.481231L267.185231 714.24a39.384615 39.384615 0 1 1-42.220308-66.481231l531.849846-337.998769z" p-id="2045"></path><path d="M245.76 863.547077a39.384615 39.384615 0 1 1-76.878769-17.132308l38.754461-173.961846a39.384615 39.384615 0 1 1 76.87877 17.132308l-38.754462 173.961846z" p-id="2046"></path><path d="M63.606154 680.684308a39.384615 39.384615 0 0 1 17.092923-76.87877l173.922461 38.754462a39.384615 39.384615 0 0 1-17.092923 76.878769l-173.922461-38.754461zM778.24 160.452923a39.384615 39.384615 0 1 1 76.878769 17.132308l-38.754461 173.961846a39.384615 39.384615 0 1 1-76.87877-17.132308l38.754462-173.961846z" p-id="2047"></path><path d="M960.393846 343.315692a39.384615 39.384615 0 0 1-17.092923 76.87877l-173.922461-38.754462a39.384615 39.384615 0 0 1 17.092923-76.878769l173.922461 38.754461zM799.035077 647.758769a39.384615 39.384615 0 0 1-42.220308 66.481231L224.964923 376.241231a39.384615 39.384615 0 0 1 42.220308-66.481231l531.849846 337.998769z" p-id="2048"></path><path d="M168.881231 177.585231a39.384615 39.384615 0 0 1 76.878769-17.132308l38.754462 173.961846a39.384615 39.384615 0 0 1-76.87877 17.132308L168.881231 177.624615z" p-id="2049"></path><path d="M80.738462 420.194462a39.384615 39.384615 0 1 1-17.132308-76.87877l173.922461-38.754461a39.384615 39.384615 0 1 1 17.092923 76.878769l-173.922461 38.754462zM855.118769 846.414769a39.384615 39.384615 0 1 1-76.878769 17.132308l-38.754462-173.961846a39.384615 39.384615 0 1 1 76.87877-17.132308l38.754461 173.961846z" p-id="2050"></path><path d="M943.261538 603.805538a39.384615 39.384615 0 0 1 17.132308 76.87877l-173.922461 38.754461a39.384615 39.384615 0 0 1-17.092923-76.878769l173.922461-38.754462z" p-id="2051"></path></svg>