<svg id="图层_1" data-name="图层 1" xmlns="http://www.w3.org/2000/svg" viewBox="0 0 1024 1024"><defs><style>.cls-1{fill:#3e3a39;}</style></defs><title>预约</title><path class="cls-1" d="M507,920.54c-217.79,0-395-177.19-395-395s177.19-395,395-395,395,177.19,395,395S724.75,920.54,507,920.54ZM507,187c-186.68,0-338.55,151.87-338.55,338.55S320.29,864.11,507,864.11,845.51,712.24,845.51,525.57,693.64,187,507,187Z"/><path class="cls-1" d="M484.39,278.39c0,45.3,0,209.76,0,249.68a8.78,8.78,0,0,1-8.82,8.77H318.19c-9.84,0-19.36,5.72-22.44,15.07A22.66,22.66,0,0,0,317.08,582H520.67a8.86,8.86,0,0,0,8.86-8.86V277.3A22.66,22.66,0,0,0,499.46,256C490.11,259,484.39,268.55,484.39,278.39Z"/><path class="cls-1" d="M914.14,362.64h0a28.17,28.17,0,0,1-16.13-32,122.34,122.34,0,0,0,2.79-32.22c-2.42-54.06-42.5-100.84-95.57-111.43a122.77,122.77,0,0,0-31.13-2.21,27.15,27.15,0,0,1-28-20.47l-.17-.69c-4.27-17.06,7.68-34.2,25.11-35.18a180.12,180.12,0,0,1,48.6,3.92C896.19,149,953.38,216.74,957.14,295a179.61,179.61,0,0,1-4.24,48.69C949,360.72,930.13,369.65,914.14,362.64Z"/><path class="cls-1" d="M104.43,362.64h0a28.17,28.17,0,0,0,16.13-32,122.34,122.34,0,0,1-2.79-32.22c2.42-54.06,42.5-100.84,95.57-111.43a122.77,122.77,0,0,1,31.13-2.21,27.15,27.15,0,0,0,28-20.47l.17-.69c4.27-17.06-7.68-34.2-25.11-35.18a180.12,180.12,0,0,0-48.6,3.92C122.38,149,65.19,216.74,61.43,295a179.61,179.61,0,0,0,4.24,48.69C69.55,360.72,88.44,369.65,104.43,362.64Z"/></svg>