<svg id="图层_1" data-name="图层 1" xmlns="http://www.w3.org/2000/svg" viewBox="0 0 1024 1024"><defs><style>.cls-1{fill:#3e3a39;}</style></defs><title>开关</title><path class="cls-1" d="M513.15,960.12c-218.08,0-395.49-177.42-395.49-395.49,0-138.93,74.3-269.34,193.89-340.32a26.27,26.27,0,0,1,26.82,45.18C234.63,331.06,170.19,444.15,170.19,564.63c0,189.11,153.84,343,343,343s343-153.85,343-343c0-120.39-61.38-229.83-164.2-292.75a26.27,26.27,0,1,1,27.42-44.81c118.55,72.55,189.32,198.74,189.32,337.56C908.64,782.7,731.22,960.12,513.15,960.12Z"/><path class="cls-1" d="M518.56,511.78a26.27,26.27,0,0,1-26.27-26.27V92.13a26.27,26.27,0,0,1,52.54,0V485.52A26.27,26.27,0,0,1,518.56,511.78Z"/></svg>