<svg id="图层_1" data-name="图层 1" xmlns="http://www.w3.org/2000/svg" viewBox="0 0 1024 1024"><defs><style>.cls-1{fill:#3e3a39;}</style></defs><title>树</title><path class="cls-1" d="M431.35,900.53V821.44H186.25a46.68,46.68,0,0,1-43.84-30.58,47.89,47.89,0,0,1,13-53.28L383.2,567.45H227.47a16,16,0,0,1-8.63-2.41c-34.59-22.29-34.81-62-10.31-82.69l192.33-144.7s-95.62-.71-98-2.26c-34.2-21.95-34.46-61.14-10.28-81.56l192.07-169a47.43,47.43,0,0,1,61.36,0L728.66,254.33c24.18,20.4,23.92,59.62-10.28,81.55-2.42,1.55-86.7,1.77-86.7,1.77L798.42,481.9c25.24,21.31,24.62,60.41-9.3,83a16.32,16.32,0,0,1-9,2.58H638.47L863.61,737.58a47.89,47.89,0,0,1,13,53.28,46.68,46.68,0,0,1-43.83,30.58H588.58v78.62c0,48.1-35.52,78.61-79.07,78.61C466.88,978.67,431.35,948.15,431.35,900.53ZM191,773.06H479.73V912.15c0,13.32,12,25.8,29.76,25.8,17,0,30.71-12.47,30.71-25.8V773.06h288L565.43,576.45c-16.19-15.73-13.87-44.51,13-57.38H771.53l-206-172.29c-16.3-15.66-14.1-44.53,12.86-57.51h121L518,115.41,325,289.27H446.48c27,13,29.16,41.85,12.86,57.51l-2,1.72-218,170.56H442.49c26.9,12.87,29.22,41.65,13,57.38L454,577.86Z"/></svg>