<svg id="图层_1" data-name="图层 1" xmlns="http://www.w3.org/2000/svg" viewBox="0 0 1024 1024"><defs><style>.cls-1{fill:#313333;}</style></defs><title>风速</title><path class="cls-1" d="M149,485.63a31,31,0,0,1-29.95-39,369.71,369.71,0,0,1,144.65-207,31,31,0,0,1,35.6,50.69A307.59,307.59,0,0,0,178.87,462.62,31,31,0,0,1,149,485.63Z"/><path class="cls-1" d="M496.88,959a370.5,370.5,0,0,1-161.42-37,31,31,0,0,1,27-55.75,307.86,307.86,0,0,0,209,21.61,31,31,0,1,1,15.15,60.05A366.85,366.85,0,0,1,496.88,959Z"/><path class="cls-1" d="M866.06,576a31,31,0,0,1-31-30.66,307.62,307.62,0,0,0-73.73-196.76,31,31,0,1,1,47-40.31A369.72,369.72,0,0,1,897,544.66,31,31,0,0,1,866.39,576Z"/><path class="cls-1" d="M514.33,524.33a31,31,0,0,1-30-23.29L398.91,167.19h0a78.78,78.78,0,0,1,12.82-66.54C427,79.92,451.18,67.26,478.05,65.92c91-4.62,155.71,61.53,173.21,176.69,25.38,167-112.63,271.29-118.51,275.64A30.94,30.94,0,0,1,514.33,524.33Zm-55.42-372.5,72.33,282.7c31.68-36.39,71.31-100.17,58.78-182.6-8.91-58.66-35-127.82-108.89-124.14-8.1.4-15.41,4-19.55,9.62a16.4,16.4,0,0,0-2.67,14.42Z"/><path class="cls-1" d="M161.66,875.64a79.9,79.9,0,0,1-8.81-.48c-25.59-2.88-48.63-17.48-63.23-40.08C40.23,758.56,65.06,669.46,156,596.72c132-105.48,291.25-38.1,298-35.19a31,31,0,0,1,9.3,50.56L216.89,853h0A78.88,78.88,0,0,1,161.66,875.64Zm33.58-44.8h0ZM329.53,599.49c-41.64,0-90.51,10.2-134.81,45.62-46.34,37-93.16,94.23-53.06,156.37,4.4,6.8,11.17,11.34,18.1,12.11a16.32,16.32,0,0,0,13.83-4.9l208.66-204A275.91,275.91,0,0,0,329.53,599.49Z"/><path class="cls-1" d="M807.06,871.76c-30.65,0-64.42-6.87-100.24-20.88C549.48,789.36,528.2,617.7,527.37,610.43A31,31,0,0,1,566.5,577.1l331.83,93h0a78.74,78.74,0,0,1,51.22,44.35c10.31,23.6,9.19,50.87-3.09,74.81C918.61,843.5,869.23,871.76,807.06,871.76ZM600.63,651c15.67,45.65,51.1,111.85,128.75,142.21,55.27,21.61,128.22,33.56,162-32.24,3.7-7.21,4.25-15.34,1.45-21.73a16.4,16.4,0,0,0-11.15-9.52h0Z"/></svg>